<svg xmlns="http://www.w3.org/2000/svg" xmlns:xlink="http://www.w3.org/1999/xlink" xmlns:svg="http://www.w3.org/2000/svg" xmlns:inkscape="http://www.inkscape.org/namespaces/inkscape" xmlns:sodipodi="http://sodipodi.sourceforge.net/DTD/sodipodi-0.dtd" xmlns:ns1="http://sozi.baierouge.fr" xmlns:dc="http://purl.org/dc/elements/1.1/" xmlns:cc="http://web.resource.org/cc/" xmlns:rdf="http://www.w3.org/1999/02/22-rdf-syntax-ns#" version="1.1" id="Layer_1" x="0px" y="0px" viewBox="0 0 216 216" enable-background="new 0 0 216 216" xml:space="preserve">
<g>
	<path fill-rule="evenodd" clip-rule="evenodd" d="M100.08,0c0.48,0,0.96,0,1.44,0C101.785,1,99.815,1,100.08,0z"/>
	<path fill-rule="evenodd" clip-rule="evenodd" d="M114.48,0c0.479,0,0.96,0,1.439,0C116.185,1,114.216,1,114.48,0z"/>
	<path fill-rule="evenodd" clip-rule="evenodd" d="M107.52,6c0.642-0.27,1.748-0.159,1.92,0.96c0.267,1.74-2.68,2.297-2.88,0.48   C106.5,6.896,106.49,6.433,107.52,6z"/>
	<path fill-rule="evenodd" clip-rule="evenodd" d="M94.8,6.48c0.252,1.532-0.388,2.172-1.92,1.92   C91.289,7.136,93.537,4.889,94.8,6.48z"/>
	<path fill-rule="evenodd" clip-rule="evenodd" d="M123.6,6.48c0.252,1.532-0.388,2.172-1.92,1.92   C120.089,7.136,122.337,4.889,123.6,6.48z"/>
	<path fill-rule="evenodd" clip-rule="evenodd" d="M80.16,6.96c0.074,0.954-0.461,1.299-1.44,1.2   c-0.106-0.214-0.211-0.429-0.48-0.48C77.79,6.106,79.903,5.798,80.16,6.96z"/>
	<path fill-rule="evenodd" clip-rule="evenodd" d="M137.76,6.96c0.074,0.954-0.461,1.299-1.439,1.2   c-0.106-0.214-0.211-0.429-0.48-0.48C135.39,6.106,137.503,5.798,137.76,6.96z"/>
	<path fill-rule="evenodd" clip-rule="evenodd" d="M64.56,6.72c0.16,0,0.32,0,0.48,0c-0.044,0.204,0.094,0.226,0.24,0.24   c0,0.16,0,0.32,0,0.48c-0.204-0.044-0.226,0.094-0.24,0.24c-0.16,0-0.32,0-0.48,0c0.044-0.204-0.094-0.227-0.24-0.24   c0-0.16,0-0.32,0-0.48C64.524,7.004,64.546,6.866,64.56,6.72z"/>
	<path fill-rule="evenodd" clip-rule="evenodd" d="M150.72,6.72c0.32,0,0.641,0,0.96,0c0,0.32,0,0.64,0,0.96   C150.854,7.866,150.533,7.546,150.72,6.72z"/>
	<path fill-rule="evenodd" clip-rule="evenodd" d="M100.08,12.72c3.484-1.459,3.28,4.534,0,3.6   C98.585,15.894,98.514,13.376,100.08,12.72z"/>
	<path fill-rule="evenodd" clip-rule="evenodd" d="M114.48,12.72c3.483-1.459,3.279,4.534,0,3.6   C112.984,15.894,112.914,13.376,114.48,12.72z"/>
	<path fill-rule="evenodd" clip-rule="evenodd" d="M85.44,12.96c0.769-0.675,2.297-0.068,2.64,0.48   c0.896,2.715-2.266,3.353-3.36,1.92C84.708,14.308,84.552,13.112,85.44,12.96z"/>
	<path fill-rule="evenodd" clip-rule="evenodd" d="M128.64,12.96c0.77-0.675,2.298-0.068,2.641,0.48   c0.896,2.715-2.266,3.353-3.36,1.92C127.907,14.308,127.752,13.112,128.64,12.96z"/>
	<path fill-rule="evenodd" clip-rule="evenodd" d="M71.52,13.2c0.642-0.27,1.748-0.159,1.92,0.96c0.268,1.74-2.679,2.297-2.88,0.48   C70.5,14.096,70.49,13.633,71.52,13.2z"/>
	<path fill-rule="evenodd" clip-rule="evenodd" d="M143.52,13.2c0.642-0.27,1.748-0.159,1.921,0.96   c0.267,1.74-2.68,2.297-2.881,0.48C142.5,14.096,142.49,13.633,143.52,13.2z"/>
	<path fill-rule="evenodd" clip-rule="evenodd" d="M56.64,14.64c-0.059-1.479,1.978-1.479,1.92,0   C58.13,15.475,57.07,15.475,56.64,14.64z"/>
	<path fill-rule="evenodd" clip-rule="evenodd" d="M157.44,14.64c-0.059-1.479,1.978-1.479,1.92,0   C158.93,15.475,157.87,15.475,157.44,14.64z"/>
	<path fill-rule="evenodd" clip-rule="evenodd" d="M93.12,19.44c1.19-0.274,2.739,0.202,2.88,1.92c0.267,3.251-4.8,3.438-4.8,0.24   C91.2,20.839,91.409,19.834,93.12,19.44z"/>
	<path fill-rule="evenodd" clip-rule="evenodd" d="M107.28,19.44c3.682-1.145,4.026,4.332,0.96,4.56   c-1.108,0.083-2.519-0.528-2.64-2.16C105.495,20.432,105.89,19.872,107.28,19.44z"/>
	<path fill-rule="evenodd" clip-rule="evenodd" d="M121.92,19.44c1.19-0.274,2.739,0.202,2.88,1.92c0.267,3.251-4.8,3.438-4.8,0.24   C120,20.839,120.209,19.834,121.92,19.44z"/>
	<path fill-rule="evenodd" clip-rule="evenodd" d="M78.72,19.68c1.514-0.404,2.559,0.39,2.64,1.68   c0.165,2.614-4.083,3.349-4.32,0.48C76.974,21.032,76.984,20.144,78.72,19.68z"/>
	<path fill-rule="evenodd" clip-rule="evenodd" d="M136.08,19.68c3.159-1.133,3.827,3.842,0.96,4.08   C135.049,23.925,133.323,20.669,136.08,19.68z"/>
	<path fill-rule="evenodd" clip-rule="evenodd" d="M66.24,20.4c1.21,2.104-1.299,3.8-2.88,2.4C62.15,20.696,64.659,19,66.24,20.4z"/>
	<path fill-rule="evenodd" clip-rule="evenodd" d="M152.64,20.4c1.211,2.104-1.299,3.8-2.88,2.4   C148.55,20.696,151.06,19,152.64,20.4z"/>
	<path fill-rule="evenodd" clip-rule="evenodd" d="M166.8,21.84c-0.48,1.118-1.92,1.118-2.399,0   C164.397,20.078,166.802,20.078,166.8,21.84z"/>
	<path fill-rule="evenodd" clip-rule="evenodd" d="M51.36,20.88c0,0.48,0,0.96,0,1.44c-0.309,0.331-1.042,0.238-1.68,0.24   C48.681,21.37,50.17,19.881,51.36,20.88z"/>
	<path fill-rule="evenodd" clip-rule="evenodd" d="M85.68,26.4c1.825-0.503,3.24,0.359,3.36,2.16c0.248,3.729-5.062,3.764-5.28,0.48   C83.696,28.07,83.847,26.906,85.68,26.4z"/>
	<path fill-rule="evenodd" clip-rule="evenodd" d="M99.6,26.4c0.701-0.293,1.827-0.432,2.4-0.24c0.117,0.039,0.149,0.439,0.24,0.48   c0.104,0.047,0.399-0.075,0.48,0c0.203,0.188,0.066,0.488,0.24,0.72c0.044,0.059,0.465,0.196,0.48,0.24   c0.458,1.4-0.121,2.521-0.72,3.12c-0.446,0.446-1.595,1.218-3.12,0.72c-0.117-0.038-0.149-0.439-0.24-0.48   c-0.104-0.047-0.399,0.075-0.48,0c-0.203-0.188-0.066-0.488-0.24-0.72c-0.044-0.059-0.466-0.196-0.48-0.24   C97.687,28.547,97.968,27.084,99.6,26.4z"/>
	<path fill-rule="evenodd" clip-rule="evenodd" d="M114,26.4c0.7-0.293,1.827-0.432,2.4-0.24c0.116,0.039,0.149,0.439,0.239,0.48   c0.104,0.047,0.399-0.075,0.48,0c0.203,0.188,0.066,0.488,0.24,0.72c0.044,0.059,0.465,0.196,0.479,0.24   c0.458,1.4-0.12,2.521-0.72,3.12c-0.446,0.446-1.595,1.218-3.12,0.72c-0.117-0.038-0.149-0.439-0.24-0.48   c-0.104-0.047-0.398,0.075-0.479,0c-0.203-0.188-0.066-0.488-0.24-0.72c-0.044-0.059-0.466-0.196-0.48-0.24   C112.087,28.547,112.368,27.084,114,26.4z"/>
	<path fill-rule="evenodd" clip-rule="evenodd" d="M128.88,26.4c0.85-0.23,1.63-0.271,2.16,0c0.497,0.255,1.111,1.261,1.2,1.92   c0.503,3.733-5.036,4.375-5.28,0.72C126.846,27.327,127.377,26.807,128.88,26.4z"/>
	<path fill-rule="evenodd" clip-rule="evenodd" d="M71.28,26.64c1.201-0.371,2.997,0.255,3.12,1.92   c0.105,1.422-1.16,2.566-2.16,2.64C69.922,31.371,68.29,27.564,71.28,26.64z"/>
	<path fill-rule="evenodd" clip-rule="evenodd" d="M143.28,26.64c1.201-0.371,2.997,0.255,3.12,1.92   c0.104,1.422-1.16,2.566-2.16,2.64C141.922,31.371,140.29,27.564,143.28,26.64z"/>
	<path fill-rule="evenodd" clip-rule="evenodd" d="M56.88,27.12c3.484-1.459,3.28,4.534,0,3.6   C55.385,30.294,55.313,27.776,56.88,27.12z"/>
	<path fill-rule="evenodd" clip-rule="evenodd" d="M157.68,27.12c3.484-1.459,3.28,4.534,0,3.6   C156.185,30.294,156.113,27.776,157.68,27.12z"/>
	<path fill-rule="evenodd" clip-rule="evenodd" d="M44.4,28.08c0.252,1.532-0.388,2.172-1.92,1.92   C40.889,28.736,43.136,26.489,44.4,28.08z"/>
	<path fill-rule="evenodd" clip-rule="evenodd" d="M174,28.08c0.252,1.532-0.388,2.172-1.92,1.92   C170.488,28.736,172.736,26.489,174,28.08z"/>
	<path fill-rule="evenodd" clip-rule="evenodd" d="M93.12,33.12c0.101-0.018,0.212-0.257,0.48-0.24   c1.737,0.108,3.039,1.468,3.12,2.88c0.097,1.692-1.528,3.283-2.88,3.36c-1.461,0.083-3.36-1.212-3.36-3.12   C90.48,34.405,91.567,33.401,93.12,33.12z"/>
	<path fill-rule="evenodd" clip-rule="evenodd" d="M107.28,33.12c4.648-1.044,5.002,5.789,0.96,6c-1.749,0.091-3.36-0.974-3.36-3.12   C104.88,34.358,105.541,33.511,107.28,33.12z"/>
	<path fill-rule="evenodd" clip-rule="evenodd" d="M121.92,33.12c0.101-0.018,0.213-0.257,0.48-0.24   c1.737,0.108,3.039,1.468,3.119,2.88c0.098,1.692-1.527,3.283-2.88,3.36c-1.461,0.083-3.359-1.212-3.359-3.12   C119.28,34.405,120.367,33.401,121.92,33.12z"/>
	<path fill-rule="evenodd" clip-rule="evenodd" d="M78.48,33.36c1.615-0.41,3.6,0.519,3.6,2.64c0,1.611-1.397,2.807-2.64,2.88   c-1.34,0.079-3.12-0.784-3.12-2.88C76.32,34.542,76.873,33.768,78.48,33.36z"/>
	<path fill-rule="evenodd" clip-rule="evenodd" d="M136.08,33.36c1.615-0.41,3.6,0.519,3.6,2.64c0,1.611-1.396,2.807-2.64,2.88   c-1.34,0.079-3.12-0.784-3.12-2.88C133.92,34.542,134.473,33.768,136.08,33.36z"/>
	<path fill-rule="evenodd" clip-rule="evenodd" d="M64.56,33.6c0.423-0.058,1.058-0.181,1.44,0c0.248,0.117,1.138,1.062,1.2,1.2   c0.287,0.635,0.2,1.958,0,2.4c-0.066,0.145-1.25,1.222-1.2,1.2c-2.286,1.034-4.46-1.749-3.6-3.6c0.006-0.012,1.029-1.126,1.2-1.2   C63.849,33.493,64.289,33.637,64.56,33.6z"/>
	<path fill-rule="evenodd" clip-rule="evenodd" d="M150.96,33.6c0.424-0.058,1.059-0.181,1.44,0c0.248,0.117,1.137,1.062,1.199,1.2   c0.287,0.635,0.2,1.958,0,2.4c-0.065,0.145-1.249,1.222-1.199,1.2c-2.286,1.034-4.461-1.749-3.601-3.6   c0.006-0.012,1.029-1.126,1.2-1.2C150.249,33.493,150.688,33.637,150.96,33.6z"/>
	<path fill-rule="evenodd" clip-rule="evenodd" d="M50.16,34.08c0.735-0.133,1.649,0.157,1.92,0.48   c0.514,0.614,0.411,2.576-0.24,3.12c-0.618,0.518-2.41,0.608-3.12-0.24c-0.42-0.502-0.542-2.268,0-2.88   C49.012,34.229,49.62,34.177,50.16,34.08z"/>
	<path fill-rule="evenodd" clip-rule="evenodd" d="M165.36,34.08c0.735-0.133,1.649,0.157,1.92,0.48   c0.514,0.615,0.41,2.576-0.24,3.12c-0.618,0.518-2.41,0.608-3.12-0.24c-0.42-0.502-0.541-2.268,0-2.88   C164.212,34.229,164.819,34.177,165.36,34.08z"/>
	<path fill-rule="evenodd" clip-rule="evenodd" d="M37.2,35.28c0.251,1.532-0.388,2.172-1.92,1.92   C33.688,35.937,35.937,33.688,37.2,35.28z"/>
	<path fill-rule="evenodd" clip-rule="evenodd" d="M181.2,35.28c0.252,1.532-0.389,2.172-1.92,1.92   C177.688,35.937,179.937,33.688,181.2,35.28z"/>
	<path fill-rule="evenodd" clip-rule="evenodd" d="M86.16,40.08c0.894-0.096,2.061,0.141,2.64,0.72c1.164,1.164,0.896,3.905,0,4.8   c-1.064,1.064-3.684,1.116-4.8,0c-0.412-0.412-1.002-1.859-0.96-2.64c0.025-0.455,0.518-1.671,0.72-1.92   C84.25,40.438,85.224,40.18,86.16,40.08z"/>
	<path fill-rule="evenodd" clip-rule="evenodd" d="M99.84,40.08c0.744-0.203,1.333-0.375,1.92-0.24   c0.849,0.196,2.276,1.707,2.4,2.88c0.206,1.953-1.258,3.669-2.88,3.84c-1.588,0.167-3.996-0.652-3.84-3.6   C97.506,41.718,98.081,40.56,99.84,40.08z"/>
	<path fill-rule="evenodd" clip-rule="evenodd" d="M114.24,40.08c0.743-0.203,1.332-0.375,1.92-0.24   c0.849,0.196,2.276,1.707,2.399,2.88c0.206,1.953-1.258,3.669-2.88,3.84c-1.588,0.167-3.996-0.652-3.84-3.6   C111.906,41.718,112.48,40.56,114.24,40.08z"/>
	<path fill-rule="evenodd" clip-rule="evenodd" d="M129.36,40.08c0.894-0.096,2.061,0.141,2.64,0.72c1.164,1.164,0.896,3.905,0,4.8   c-1.064,1.064-3.684,1.116-4.8,0c-0.412-0.412-1.003-1.859-0.96-2.64c0.024-0.455,0.518-1.671,0.72-1.92   C127.449,40.438,128.424,40.18,129.36,40.08z"/>
	<path fill-rule="evenodd" clip-rule="evenodd" d="M71.76,40.32c1.387-0.157,3.259,0.85,3.36,2.64   c0.081,1.429-1.235,3.267-2.88,3.36c-1.485,0.084-3.439-1.104-3.36-3.36c-0.002,0.069,0.184-0.806,0.24-0.96   C69.373,41.31,70.183,40.499,71.76,40.32z"/>
	<path fill-rule="evenodd" clip-rule="evenodd" d="M143.76,40.32c1.388-0.157,3.259,0.85,3.36,2.64   c0.081,1.429-1.235,3.267-2.88,3.36c-1.485,0.084-3.438-1.104-3.36-3.36c-0.002,0.069,0.184-0.806,0.24-0.96   C141.373,41.31,142.183,40.499,143.76,40.32z"/>
	<path fill-rule="evenodd" clip-rule="evenodd" d="M56.88,40.8c1.825-0.503,3.241,0.359,3.36,2.16   c0.248,3.729-5.062,3.764-5.28,0.48C54.896,42.47,55.047,41.306,56.88,40.8z"/>
	<path fill-rule="evenodd" clip-rule="evenodd" d="M157.68,40.8c0.85-0.23,1.63-0.271,2.16,0c0.497,0.255,1.111,1.261,1.2,1.92   c0.503,3.733-5.035,4.375-5.28,0.72C155.646,41.727,156.177,41.208,157.68,40.8z"/>
	<path fill-rule="evenodd" clip-rule="evenodd" d="M42.72,41.28c0.825-0.219,1.706-0.044,2.16,0.48   c0.045,0.052,0.462,0.985,0.48,1.2c0.107,1.305-1.02,2.326-1.92,2.4C41.386,45.528,39.596,42.11,42.72,41.28z"/>
	<path fill-rule="evenodd" clip-rule="evenodd" d="M172.32,41.28c0.825-0.219,1.705-0.044,2.16,0.48   c0.044,0.052,0.462,0.985,0.479,1.2c0.106,1.305-1.02,2.326-1.92,2.4C170.986,45.528,169.196,42.11,172.32,41.28z"/>
	<path fill-rule="evenodd" clip-rule="evenodd" d="M30,42.48c0.252,1.532-0.388,2.172-1.92,1.92   C26.489,43.136,28.736,40.889,30,42.48z"/>
	<path fill-rule="evenodd" clip-rule="evenodd" d="M188.4,42.48c0.251,1.532-0.389,2.172-1.92,1.92   C184.889,43.136,187.137,40.889,188.4,42.48z"/>
	<path fill-rule="evenodd" clip-rule="evenodd" d="M92.64,47.04c0.777-0.193,1.246-0.376,1.92-0.24   c1.05,0.212,2.448,1.578,2.64,2.88c0.33,2.238-1.191,4.071-2.88,4.32c-2.087,0.308-4.598-1.096-4.32-4.08   C90.113,48.71,90.745,47.511,92.64,47.04z"/>
	<path fill-rule="evenodd" clip-rule="evenodd" d="M106.8,47.04c0.927-0.272,1.798-0.387,2.4-0.24c0.572,0.14,2.186,1.53,2.399,2.4   c0.849,3.448-2.355,5.401-4.8,4.8c-0.577-0.142-2.214-1.652-2.4-2.4C103.895,49.564,104.659,47.669,106.8,47.04z"/>
	<path fill-rule="evenodd" clip-rule="evenodd" d="M121.44,47.04c0.776-0.193,1.246-0.376,1.92-0.24   c1.05,0.212,2.447,1.578,2.64,2.88c0.33,2.238-1.19,4.071-2.88,4.32c-2.088,0.308-4.599-1.096-4.32-4.08   C118.913,48.71,119.545,47.511,121.44,47.04z"/>
	<path fill-rule="evenodd" clip-rule="evenodd" d="M78.24,47.28c0.744-0.19,1.276-0.37,1.92-0.24c0.842,0.17,1.573,1.078,1.92,1.44   c0.831,0.867,0.395,3.792-0.48,4.56c-0.158,0.139-0.338,0.104-0.48,0.24c-0.424,0.407-2.614,0.725-3.6,0.24   c-0.107-0.053-0.152-0.44-0.24-0.48c-0.107-0.049-0.394,0.076-0.48,0c-0.384-0.337-0.855-1.329-0.96-1.92   C75.533,49.379,76.204,47.8,78.24,47.28z"/>
	<path fill-rule="evenodd" clip-rule="evenodd" d="M135.6,47.28c0.989-0.318,2.215-0.457,2.881,0c0.086,0.06,0.163,0.446,0.239,0.48   c0.373,0.168,1.261,0.747,1.44,1.44c0.302,1.166-0.08,2.496-0.48,3.12c-0.67,1.045-3.006,2.111-4.8,0.96   C133.016,52.083,132.747,48.198,135.6,47.28z"/>
	<path fill-rule="evenodd" clip-rule="evenodd" d="M64.08,47.52c4.647-1.043,5.002,5.789,0.96,6c-1.749,0.091-3.36-0.973-3.36-3.12   C61.68,48.758,62.341,47.911,64.08,47.52z"/>
	<path fill-rule="evenodd" clip-rule="evenodd" d="M150.48,47.52c4.647-1.043,5.002,5.789,0.96,6c-1.749,0.091-3.36-0.973-3.36-3.12   C148.08,48.758,148.741,47.911,150.48,47.52z"/>
	<path fill-rule="evenodd" clip-rule="evenodd" d="M49.44,48c1.612-0.554,3.302,0.155,3.6,1.68c0.331,1.693-0.784,3.138-1.92,3.36   C48.085,53.633,46.208,49.11,49.44,48z"/>
	<path fill-rule="evenodd" clip-rule="evenodd" d="M164.64,48c1.612-0.554,3.303,0.155,3.601,1.68c0.33,1.693-0.784,3.138-1.92,3.36   C163.285,53.633,161.408,49.11,164.64,48z"/>
	<path fill-rule="evenodd" clip-rule="evenodd" d="M35.76,48.48c0.736-0.132,1.65,0.157,1.92,0.48c0.514,0.615,0.41,2.576-0.24,3.12   c-0.619,0.518-2.41,0.608-3.12-0.24c-0.42-0.502-0.541-2.268,0-2.88C34.612,48.629,35.22,48.577,35.76,48.48z"/>
	<path fill-rule="evenodd" clip-rule="evenodd" d="M179.76,48.48c0.736-0.132,1.65,0.157,1.92,0.48   c0.515,0.615,0.411,2.576-0.239,3.12c-0.619,0.518-2.41,0.608-3.12-0.24c-0.421-0.502-0.541-2.268,0-2.88   C178.612,48.629,179.22,48.577,179.76,48.48z"/>
	<path fill-rule="evenodd" clip-rule="evenodd" d="M195.6,50.64c-0.479,1.118-1.919,1.118-2.399,0   C193.198,48.878,195.603,48.878,195.6,50.64z"/>
	<path fill-rule="evenodd" clip-rule="evenodd" d="M22.56,49.68c0,0.48,0,0.96,0,1.44c-0.31,0.331-1.042,0.237-1.68,0.24   C19.881,50.17,21.37,48.681,22.56,49.68z"/>
	<path fill-rule="evenodd" clip-rule="evenodd" d="M85.92,54c0.091-0.013,0.215-0.276,0.48-0.24c1.636,0.225,2.483,0.896,3.12,1.92   c0.134,0.215,0.689,1.061,0.72,1.68c0.147,2.972-3.23,4.933-5.76,3.36c-0.795-0.494-1.92-1.475-1.92-3.12   c0-0.467,0.229-1.555,0.48-1.92c0.06-0.087,0.445-0.164,0.48-0.24C83.866,54.673,84.414,54.211,85.92,54z"/>
	<path fill-rule="evenodd" clip-rule="evenodd" d="M99.6,54c1.131-0.322,1.665-0.418,2.4-0.24c0.744,0.18,2.389,1.639,2.64,2.88   c0.512,2.535-1.432,5.291-4.56,4.8c-1.61-0.253-3.53-1.68-3.12-4.56C97.103,55.879,97.861,54.496,99.6,54z"/>
	<path fill-rule="evenodd" clip-rule="evenodd" d="M114,54c1.131-0.322,1.665-0.418,2.4-0.24c0.744,0.18,2.389,1.639,2.64,2.88   c0.513,2.535-1.432,5.291-4.56,4.8c-1.61-0.253-3.531-1.68-3.12-4.56C111.503,55.879,112.261,54.496,114,54z"/>
	<path fill-rule="evenodd" clip-rule="evenodd" d="M129.12,54c0.091-0.013,0.215-0.276,0.479-0.24   c1.637,0.225,2.483,0.896,3.12,1.92c0.134,0.215,0.689,1.061,0.721,1.68c0.146,2.972-3.23,4.933-5.761,3.36   c-0.794-0.494-1.92-1.475-1.92-3.12c0-0.467,0.229-1.555,0.48-1.92c0.06-0.087,0.445-0.164,0.479-0.24   C127.066,54.673,127.614,54.211,129.12,54z"/>
	<path fill-rule="evenodd" clip-rule="evenodd" d="M71.52,54.24c4.968-0.765,5.289,6.96,0.48,6.96c-1.56,0-3.6-1.142-3.6-3.6   C68.4,55.72,69.543,54.544,71.52,54.24z"/>
	<path fill-rule="evenodd" clip-rule="evenodd" d="M143.52,54.24c4.969-0.765,5.289,6.96,0.48,6.96c-1.56,0-3.6-1.142-3.6-3.6   C140.4,55.72,141.544,54.544,143.52,54.24z"/>
	<path fill-rule="evenodd" clip-rule="evenodd" d="M56.64,54.72c1.803-0.523,3.769,0.295,4.08,2.16c0.301,1.81-0.888,3.588-2.4,3.84   c-1.581,0.263-3.996-0.405-3.84-3.36C54.541,56.214,54.954,55.209,56.64,54.72z"/>
	<path fill-rule="evenodd" clip-rule="evenodd" d="M157.44,54.72c1.803-0.523,3.769,0.295,4.079,2.16   c0.302,1.81-0.887,3.588-2.399,3.84c-1.581,0.263-3.996-0.405-3.84-3.36C155.341,56.214,155.754,55.209,157.44,54.72z"/>
	<path fill-rule="evenodd" clip-rule="evenodd" d="M42.48,55.2c1.825-0.504,3.24,0.358,3.36,2.16c0.248,3.729-5.062,3.764-5.28,0.48   C40.496,56.87,40.647,55.706,42.48,55.2z"/>
	<path fill-rule="evenodd" clip-rule="evenodd" d="M172.08,55.2c0.849-0.23,1.63-0.272,2.16,0c0.497,0.254,1.111,1.261,1.2,1.92   c0.503,3.733-5.036,4.375-5.28,0.72C170.045,56.126,170.577,55.607,172.08,55.2z"/>
	<path fill-rule="evenodd" clip-rule="evenodd" d="M28.08,55.92c3.484-1.458,3.28,4.534,0,3.6   C26.585,59.094,26.514,56.576,28.08,55.92z"/>
	<path fill-rule="evenodd" clip-rule="evenodd" d="M186.48,55.92c3.483-1.458,3.279,4.534,0,3.6   C184.984,59.094,184.914,56.576,186.48,55.92z"/>
	<path fill-rule="evenodd" clip-rule="evenodd" d="M13.44,57.84c-0.058-1.479,1.979-1.479,1.92,0   C14.93,58.675,13.87,58.675,13.44,57.84z"/>
	<path fill-rule="evenodd" clip-rule="evenodd" d="M200.64,57.84c-0.058-1.479,1.979-1.479,1.92,0   C202.13,58.675,201.07,58.675,200.64,57.84z"/>
	<path fill-rule="evenodd" clip-rule="evenodd" d="M92.64,60.96c2.653-0.62,5.34,1.128,5.04,4.32c-0.157,1.667-1.768,3.376-3.36,3.6   c-1.979,0.278-5.118-1.175-4.8-4.56C89.653,62.905,90.541,61.45,92.64,60.96z"/>
	<path fill-rule="evenodd" clip-rule="evenodd" d="M106.8,60.96c1.16-0.305,1.633-0.403,2.4-0.24   c-0.024-0.005,0.603,0.182,0.72,0.24c0.107,0.053,0.152,0.44,0.24,0.48c1.261,0.568,2.358,2.504,1.92,4.56   c-0.215,1.005-1.645,2.605-2.88,2.88c-0.913,0.204-2.481,0.079-3.12-0.24c-0.106-0.053-0.152-0.44-0.24-0.48   c-0.562-0.253-0.863-0.598-1.44-1.2c-0.312-0.325-0.784-1.935-0.48-3.36C104.101,62.751,105.044,61.421,106.8,60.96z"/>
	<path fill-rule="evenodd" clip-rule="evenodd" d="M121.44,60.96c2.653-0.62,5.34,1.128,5.04,4.32   c-0.157,1.667-1.768,3.376-3.36,3.6c-1.979,0.278-5.118-1.175-4.8-4.56C118.453,62.905,119.341,61.45,121.44,60.96z"/>
	<path fill-rule="evenodd" clip-rule="evenodd" d="M78.24,61.2c3.751-0.876,5.629,2.525,4.56,5.28   c-0.506,1.306-2.779,2.891-5.28,1.92C75.09,67.457,74.165,62.152,78.24,61.2z"/>
	<path fill-rule="evenodd" clip-rule="evenodd" d="M135.84,61.2c3.752-0.876,5.629,2.525,4.561,5.28   c-0.507,1.306-2.779,2.891-5.28,1.92C132.69,67.457,131.765,62.152,135.84,61.2z"/>
	<path fill-rule="evenodd" clip-rule="evenodd" d="M64.32,61.44c4.968-0.765,5.289,6.96,0.48,6.96c-1.559,0-3.6-1.142-3.6-3.6   C61.2,62.92,62.344,61.744,64.32,61.44z"/>
	<path fill-rule="evenodd" clip-rule="evenodd" d="M150.48,61.44c5.163-1.07,5.592,6.718,0.96,6.96   C147.304,68.616,146.057,62.357,150.48,61.44z"/>
	<path fill-rule="evenodd" clip-rule="evenodd" d="M49.68,61.92c4.647-1.043,5.002,5.789,0.96,6c-1.749,0.091-3.36-0.973-3.36-3.12   C47.28,63.159,47.941,62.311,49.68,61.92z"/>
	<path fill-rule="evenodd" clip-rule="evenodd" d="M164.88,61.92c4.647-1.043,5.002,5.789,0.96,6   c-1.749,0.091-3.359-0.973-3.359-3.12C162.48,63.159,163.141,62.311,164.88,61.92z"/>
	<path fill-rule="evenodd" clip-rule="evenodd" d="M35.76,62.4c0.423-0.058,1.059-0.181,1.44,0c0.248,0.118,1.137,1.062,1.2,1.2   c0.287,0.635,0.2,1.958,0,2.4c-0.065,0.146-1.25,1.223-1.2,1.2c-2.286,1.033-4.46-1.75-3.6-3.6c0.006-0.013,1.029-1.126,1.2-1.2   C35.049,62.292,35.488,62.437,35.76,62.4z"/>
	<path fill-rule="evenodd" clip-rule="evenodd" d="M179.76,62.4c0.424-0.058,1.059-0.181,1.44,0c0.248,0.118,1.138,1.062,1.2,1.2   c0.287,0.635,0.199,1.958,0,2.4c-0.066,0.146-1.25,1.223-1.2,1.2c-2.286,1.033-4.46-1.75-3.601-3.6c0.006-0.013,1.03-1.126,1.2-1.2   C179.049,62.292,179.488,62.437,179.76,62.4z"/>
	<path fill-rule="evenodd" clip-rule="evenodd" d="M23.04,63.6c1.21,2.104-1.299,3.799-2.88,2.4   C18.95,63.896,21.459,62.2,23.04,63.6z"/>
	<path fill-rule="evenodd" clip-rule="evenodd" d="M195.84,63.6c1.21,2.104-1.299,3.799-2.88,2.4   C191.75,63.896,194.259,62.2,195.84,63.6z"/>
	<path fill-rule="evenodd" clip-rule="evenodd" d="M209.52,65.04c-0.477,0.003-0.305,0.655-0.96,0.48   c-0.105-0.214-0.21-0.429-0.479-0.48C208.035,63.864,209.565,63.864,209.52,65.04z"/>
	<path fill-rule="evenodd" clip-rule="evenodd" d="M6.96,64.32c0.16,0,0.32,0,0.48,0c-0.044,0.204,0.094,0.227,0.24,0.24   c0,0.16,0,0.32,0,0.48c-0.204-0.044-0.227,0.094-0.24,0.24c-0.16,0-0.32,0-0.48,0c0.044-0.204-0.094-0.226-0.24-0.24   c0-0.16,0-0.32,0-0.48C6.924,64.604,6.946,64.466,6.96,64.32z"/>
	<path fill-rule="evenodd" clip-rule="evenodd" d="M99.6,67.92c1.129-0.287,2.174-0.467,3.12,0c0.107,0.053,0.152,0.44,0.24,0.48   c0.117,0.053,0.38-0.075,0.48,0c0.75,0.564,1.608,2.078,1.68,2.4c0.264,1.187-0.118,2.407-0.48,3.12   c-0.858,1.688-3.224,3.21-5.76,1.92c-1.296-0.659-3.004-2.208-2.4-5.04c0.129-0.604,1.232-2.35,2.64-2.88   C99.259,67.868,99.455,67.957,99.6,67.92z"/>
	<path fill-rule="evenodd" clip-rule="evenodd" d="M114,67.92c1.129-0.287,2.174-0.467,3.12,0c0.107,0.053,0.151,0.44,0.24,0.48   c0.116,0.053,0.379-0.075,0.479,0c0.75,0.564,1.608,2.078,1.68,2.4c0.265,1.187-0.117,2.407-0.479,3.12   c-0.858,1.688-3.224,3.21-5.76,1.92c-1.296-0.659-3.005-2.208-2.4-5.04c0.129-0.604,1.232-2.35,2.64-2.88   C113.659,67.868,113.854,67.957,114,67.92z"/>
	<path fill-rule="evenodd" clip-rule="evenodd" d="M84.96,68.16c2.261-0.686,3.12-0.24,4.32,0.96c0.741,0.741,1.767,2.095,1.2,4.32   c-0.201,0.788-1.667,2.389-2.64,2.64c-2.04,0.528-3.259-0.139-4.32-1.2c-0.742-0.742-1.786-2.018-1.2-4.32   C82.466,69.985,83.476,68.61,84.96,68.16z"/>
	<path fill-rule="evenodd" clip-rule="evenodd" d="M128.16,68.16c2.261-0.686,3.12-0.24,4.32,0.96   c0.74,0.741,1.766,2.095,1.199,4.32c-0.2,0.788-1.667,2.389-2.64,2.64c-2.04,0.528-3.259-0.139-4.32-1.2   c-0.742-0.742-1.785-2.018-1.2-4.32C125.666,69.985,126.676,68.61,128.16,68.16z"/>
	<path fill-rule="evenodd" clip-rule="evenodd" d="M70.8,68.4c1.131-0.322,1.666-0.417,2.4-0.24c0.744,0.18,2.389,1.639,2.64,2.88   c0.513,2.535-1.432,5.291-4.56,4.8c-1.61-0.252-3.53-1.68-3.12-4.56C68.303,70.28,69.061,68.896,70.8,68.4z"/>
	<path fill-rule="evenodd" clip-rule="evenodd" d="M142.8,68.4c0.858-0.24,2.354-0.341,3.36,0.24c0.099,0.057,0.156,0.442,0.24,0.48   c0.699,0.315,0.254-0.252,0.96,0.96c0.492,0.847,0.73,2.816,0,4.08c-0.058,0.099-0.442,0.156-0.48,0.24   c-0.206,0.457-0.271,0.559-0.96,0.96c-1.884,1.097-6.354,0.285-5.76-4.08C140.31,70.177,141.007,68.901,142.8,68.4z"/>
	<path fill-rule="evenodd" clip-rule="evenodd" d="M57.12,68.64c4.968-0.765,5.289,6.96,0.48,6.96c-1.56,0-3.6-1.142-3.6-3.6   C54,70.12,55.144,68.944,57.12,68.64z"/>
	<path fill-rule="evenodd" clip-rule="evenodd" d="M157.92,68.64c4.968-0.765,5.289,6.96,0.48,6.96c-1.56,0-3.601-1.142-3.601-3.6   C154.8,70.12,155.943,68.944,157.92,68.64z"/>
	<path fill-rule="evenodd" clip-rule="evenodd" d="M42.96,69.12c1.387-0.157,3.259,0.849,3.36,2.64   c0.081,1.429-1.235,3.268-2.88,3.36c-1.484,0.084-3.439-1.105-3.36-3.36c-0.002,0.069,0.184-0.806,0.24-0.96   C40.573,70.11,41.383,69.299,42.96,69.12z"/>
	<path fill-rule="evenodd" clip-rule="evenodd" d="M172.56,69.12c1.388-0.157,3.26,0.849,3.36,2.64   c0.081,1.429-1.235,3.268-2.88,3.36c-1.484,0.084-3.438-1.105-3.36-3.36c-0.002,0.069,0.184-0.806,0.24-0.96   C170.173,70.11,170.982,69.299,172.56,69.12z"/>
	<path fill-rule="evenodd" clip-rule="evenodd" d="M28.08,69.84c1.201-0.371,2.997,0.255,3.12,1.92   c0.105,1.422-1.16,2.566-2.16,2.64C26.722,74.571,25.09,70.764,28.08,69.84z"/>
	<path fill-rule="evenodd" clip-rule="evenodd" d="M186.48,69.84c1.2-0.371,2.997,0.255,3.119,1.92   c0.105,1.422-1.16,2.566-2.159,2.64C185.122,74.571,183.49,70.764,186.48,69.84z"/>
	<path fill-rule="evenodd" clip-rule="evenodd" d="M13.92,70.8c0.642-0.27,1.748-0.159,1.92,0.96c0.268,1.741-2.679,2.298-2.88,0.48   C12.9,71.696,12.89,71.233,13.92,70.8z"/>
	<path fill-rule="evenodd" clip-rule="evenodd" d="M201.12,70.8c0.642-0.27,1.748-0.159,1.92,0.96   c0.268,1.741-2.679,2.298-2.88,0.48C200.1,71.696,200.091,71.233,201.12,70.8z"/>
	<path fill-rule="evenodd" clip-rule="evenodd" d="M92.88,74.88c1.045-0.17,2.77-0.014,3.84,0.96c2.55,2.321,1.223,7.92-3.12,7.92   c-0.932,0-2.463-0.584-3.12-1.2c-1.2-1.124-1.839-3.72-0.72-5.52C90.386,76.033,91.07,75.175,92.88,74.88z"/>
	<path fill-rule="evenodd" clip-rule="evenodd" d="M106.8,74.88c1.589-0.387,2.827-0.248,3.84,0.48   c0.083,0.06,0.166,0.447,0.24,0.48c0.394,0.177,0.678,0.327,0.96,0.72c0.616,0.857,0.935,3.363,0.48,4.56   c-0.334,0.88-1.826,2.182-2.4,2.4c-3.917,1.486-8.342-2.684-5.76-6.72C104.751,75.876,105.272,75.252,106.8,74.88z"/>
	<path fill-rule="evenodd" clip-rule="evenodd" d="M121.68,74.88c1.046-0.17,2.77-0.014,3.84,0.96   c2.551,2.321,1.224,7.92-3.119,7.92c-0.933,0-2.463-0.584-3.12-1.2c-1.2-1.124-1.839-3.72-0.721-5.52   C119.187,76.033,119.87,75.175,121.68,74.88z"/>
	<path fill-rule="evenodd" clip-rule="evenodd" d="M78.72,75.12c0.022-0.003,0.039-0.245,0.24-0.24   c2.327,0.058,4.46,1.841,4.56,4.08c0.116,2.61-2.602,5.104-5.28,4.32c-1.737-0.509-4.193-2.674-3.12-5.52   C75.555,76.606,76.82,75.373,78.72,75.12z"/>
	<path fill-rule="evenodd" clip-rule="evenodd" d="M136.32,75.12c0.021-0.003,0.039-0.245,0.239-0.24   c2.327,0.058,4.461,1.841,4.561,4.08c0.115,2.61-2.602,5.105-5.28,4.32c-1.737-0.509-4.193-2.674-3.12-5.52   C133.155,76.606,134.42,75.373,136.32,75.12z"/>
	<path fill-rule="evenodd" clip-rule="evenodd" d="M63.84,75.6c3.751-0.876,5.629,2.525,4.56,5.28   c-0.507,1.306-2.779,2.891-5.28,1.92C60.69,81.857,59.765,76.552,63.84,75.6z"/>
	<path fill-rule="evenodd" clip-rule="evenodd" d="M150,75.6c1.131-0.323,1.665-0.418,2.4-0.24c0.744,0.18,2.389,1.639,2.64,2.88   c0.513,2.535-1.433,5.291-4.56,4.8c-1.61-0.253-3.531-1.68-3.12-4.56C147.503,77.479,148.261,76.096,150,75.6z"/>
	<path fill-rule="evenodd" clip-rule="evenodd" d="M49.44,76.08c0.744-0.19,1.276-0.37,1.92-0.24c0.842,0.17,1.574,1.079,1.92,1.44   c0.831,0.867,0.396,3.793-0.48,4.56c-0.158,0.139-0.338,0.104-0.48,0.24c-0.424,0.406-2.613,0.725-3.6,0.24   c-0.107-0.053-0.152-0.44-0.24-0.48c-0.108-0.048-0.394,0.076-0.48,0c-0.384-0.337-0.856-1.328-0.96-1.92   C46.733,78.18,47.404,76.6,49.44,76.08z"/>
	<path fill-rule="evenodd" clip-rule="evenodd" d="M164.4,76.08c0.988-0.318,2.214-0.458,2.88,0c0.086,0.06,0.163,0.445,0.239,0.48   c0.373,0.168,1.261,0.747,1.44,1.44c0.302,1.166-0.079,2.496-0.479,3.12c-0.671,1.044-3.007,2.111-4.801,0.96   C161.816,80.884,161.547,76.998,164.4,76.08z"/>
	<path fill-rule="evenodd" clip-rule="evenodd" d="M35.28,76.56c1.616-0.41,3.6,0.518,3.6,2.64c0,1.611-1.397,2.807-2.64,2.88   c-1.34,0.079-3.12-0.784-3.12-2.88C33.12,77.742,33.672,76.968,35.28,76.56z"/>
	<path fill-rule="evenodd" clip-rule="evenodd" d="M179.28,76.56c1.615-0.41,3.6,0.518,3.6,2.64c0,1.611-1.396,2.807-2.64,2.88   c-1.34,0.079-3.12-0.784-3.12-2.88C177.12,77.742,177.673,76.968,179.28,76.56z"/>
	<path fill-rule="evenodd" clip-rule="evenodd" d="M21.12,77.28c1.514-0.404,2.559,0.39,2.64,1.68   c0.165,2.614-4.083,3.349-4.32,0.48C19.374,78.632,19.384,77.744,21.12,77.28z"/>
	<path fill-rule="evenodd" clip-rule="evenodd" d="M193.68,77.28c3.159-1.133,3.827,3.842,0.96,4.08   C192.648,81.525,190.923,78.269,193.68,77.28z"/>
	<path fill-rule="evenodd" clip-rule="evenodd" d="M8.16,78.96c0.074,0.954-0.461,1.299-1.44,1.2   c-0.106-0.214-0.211-0.429-0.48-0.48C5.79,78.106,7.903,77.798,8.16,78.96z"/>
	<path fill-rule="evenodd" clip-rule="evenodd" d="M209.76,78.96c0.074,0.954-0.461,1.299-1.439,1.2   c-0.106-0.214-0.211-0.429-0.48-0.48C207.39,78.106,209.503,77.798,209.76,78.96z"/>
	<path fill-rule="evenodd" clip-rule="evenodd" d="M99.84,81.84c1.32-0.252,2.376-0.041,3.6,0.72c0.636,0.395,1.159,0.725,1.68,1.92   c1.268,2.905-0.705,6.583-4.08,6.72c-0.881,0.036-1.979-0.225-2.88-0.72c-0.102-0.056-0.155-0.441-0.24-0.48   c-0.544-0.245-1.021-0.722-1.44-1.68c-0.765-1.752-0.409-3.058,0.48-4.56C97.459,82.917,98.149,82.164,99.84,81.84z"/>
	<path fill-rule="evenodd" clip-rule="evenodd" d="M114.24,81.84c1.319-0.252,2.376-0.041,3.6,0.72   c0.636,0.395,1.158,0.725,1.68,1.92c1.269,2.905-0.704,6.583-4.079,6.72c-0.882,0.036-1.979-0.225-2.881-0.72   c-0.102-0.056-0.154-0.441-0.239-0.48c-0.545-0.246-1.022-0.722-1.44-1.68c-0.765-1.752-0.409-3.058,0.48-4.56   C111.859,82.917,112.55,82.164,114.24,81.84z"/>
	<path fill-rule="evenodd" clip-rule="evenodd" d="M85.44,82.08c2.74-0.568,5.52,1.385,5.52,4.32c0,2.485-2.215,4.56-4.56,4.56   c-2.38,0-4.682-1.785-4.56-4.8C81.927,83.997,83.076,82.57,85.44,82.08z"/>
	<path fill-rule="evenodd" clip-rule="evenodd" d="M128.64,82.08c2.74-0.568,5.521,1.385,5.521,4.32c0,2.485-2.216,4.56-4.561,4.56   c-2.38,0-4.682-1.785-4.56-4.8C125.127,83.997,126.275,82.57,128.64,82.08z"/>
	<path fill-rule="evenodd" clip-rule="evenodd" d="M70.56,82.56c2.261-0.686,3.12-0.24,4.32,0.96c0.741,0.741,1.767,2.095,1.2,4.32   c-0.201,0.788-1.667,2.389-2.64,2.64c-2.04,0.528-3.259-0.139-4.32-1.2c-0.743-0.742-1.786-2.018-1.2-4.32   C68.066,84.385,69.076,83.01,70.56,82.56z"/>
	<path fill-rule="evenodd" clip-rule="evenodd" d="M142.56,82.56c2.262-0.686,3.12-0.24,4.32,0.96c0.741,0.741,1.767,2.095,1.2,4.32   c-0.2,0.788-1.668,2.389-2.64,2.64c-2.04,0.528-3.259-0.139-4.32-1.2c-0.742-0.742-1.786-2.018-1.2-4.32   C140.066,84.385,141.076,83.01,142.56,82.56z"/>
	<path fill-rule="evenodd" clip-rule="evenodd" d="M57.12,82.8c0.091-0.013,0.214-0.276,0.48-0.24   c1.636,0.225,2.483,0.896,3.12,1.92c0.134,0.215,0.689,1.061,0.72,1.68c0.147,2.972-3.23,4.933-5.76,3.36   c-0.795-0.494-1.92-1.475-1.92-3.12c0-0.467,0.229-1.555,0.48-1.92c0.059-0.086,0.445-0.164,0.48-0.24   C55.066,83.473,55.614,83.011,57.12,82.8z"/>
	<path fill-rule="evenodd" clip-rule="evenodd" d="M157.68,82.8c1.682-0.304,2.935,0.227,3.601,0.96   c0.235,0.26,0.926,1.655,0.96,2.4c0.234,5.186-7.681,5.458-7.681,0.24c0-0.486,0.131-1.146,0.24-1.44   C155.202,83.888,156.102,83.085,157.68,82.8z"/>
	<path fill-rule="evenodd" clip-rule="evenodd" d="M42.96,83.28c0.894-0.095,2.061,0.141,2.64,0.72c1.164,1.164,0.896,3.904,0,4.8   c-1.065,1.065-3.684,1.116-4.8,0c-0.411-0.411-1.002-1.859-0.96-2.64c0.025-0.455,0.518-1.671,0.72-1.92   C41.049,83.638,42.024,83.38,42.96,83.28z"/>
	<path fill-rule="evenodd" clip-rule="evenodd" d="M172.32,83.28c1.248-0.198,2.334,0.175,2.88,0.72   c1.72,1.719,0.55,5.624-2.16,5.76c-1.883,0.095-4.335-2.055-3.36-4.56C170.074,84.187,170.83,83.517,172.32,83.28z"/>
	<path fill-rule="evenodd" clip-rule="evenodd" d="M28.08,84c1.825-0.503,3.24,0.358,3.36,2.16c0.248,3.729-5.062,3.764-5.28,0.48   C26.096,85.67,26.247,84.506,28.08,84z"/>
	<path fill-rule="evenodd" clip-rule="evenodd" d="M186.48,84c0.849-0.23,1.629-0.271,2.159,0c0.497,0.254,1.111,1.261,1.2,1.92   c0.504,3.733-5.035,4.375-5.28,0.72C184.445,84.927,184.977,84.407,186.48,84z"/>
	<path fill-rule="evenodd" clip-rule="evenodd" d="M13.44,84.96c0.769-0.675,2.297-0.068,2.64,0.48   c0.896,2.715-2.266,3.353-3.36,1.92C12.708,86.308,12.552,85.112,13.44,84.96z"/>
	<path fill-rule="evenodd" clip-rule="evenodd" d="M200.64,84.96c0.77-0.675,2.298-0.068,2.641,0.48   c0.896,2.715-2.266,3.353-3.36,1.92C199.907,86.308,199.752,85.112,200.64,84.96z"/>
	<path fill-rule="evenodd" clip-rule="evenodd" d="M111.84,96.96c3.77-3.168,9.095,0.166,8.4,4.8c-0.148,0.988-0.646,1.427-1.2,2.4   c1.267-0.624,1.741-1.115,2.88-1.2c3.287-0.245,5.616,2.445,5.521,5.28c-0.114,3.359-4.776,6.58-8.16,3.6   c-0.23,0.644,0.787,1.169,0.96,2.16c0.584,3.362-1.98,6.843-6,6.24c-0.988-0.148-1.428-0.646-2.4-1.2   c0.551,1.163,1.111,1.693,1.2,2.88c0.243,3.267-2.223,5.346-4.56,5.521c-4.044,0.301-7.375-4.647-4.32-8.16   c-0.644-0.23-1.169,0.787-2.16,0.96c-3.363,0.584-6.842-1.98-6.24-6c0.148-0.988,0.646-1.428,1.2-2.4   c-1.379,0.591-1.885,1.16-3.12,1.2c-2.977,0.097-5.28-2.396-5.28-5.04c0-2.374,1.847-5.04,5.04-5.04c1.312,0,2.059,0.501,3.12,1.2   c0.18-0.611-0.81-1.287-0.96-2.4c-0.61-4.535,4.676-7.917,8.4-4.8c-0.513-1.25-1.159-1.842-1.2-3.12   c-0.105-3.225,2.473-5.204,4.8-5.28c3.793-0.124,6.835,4.322,4.32,7.92C112.034,96.674,111.839,96.719,111.84,96.96z    M105.12,103.44c0.778-0.109,1.191-0.613,2.16-0.72c1.764-0.196,2.871,0.727,3.6,0.48c-0.772-0.753-0.956-2.241-0.72-3.6   c0.188-1.078,1.276-1.678,0.96-2.16c-0.851,0.619-1.83,1.2-3.12,1.2c-1.664,0-2.54-1.148-3.36-0.96   C106.071,98.579,106.215,102.041,105.12,103.44z M98.64,108.24c-0.046,1.402-1.112,2.301-0.96,3.12   c0.815-1.444,4.437-1.626,5.76-0.48c-0.43-1.065-0.907-2.342-0.72-3.84c0.099-0.793,0.947-1.38,0.48-1.92   c-0.744,0.679-2.142,0.933-3.36,0.72c-1.079-0.189-1.876-1.113-2.4-0.96C98.117,105.766,98.684,106.895,98.64,108.24z    M112.56,105.12c0.43,1.065,0.907,2.342,0.721,3.84c-0.1,0.794-0.947,1.38-0.48,1.92c0.604-0.916,2.325-0.715,3.84-0.72   c0.482,0.329,1.658,1.206,1.92,0.96c-0.777-0.853-1.44-2.417-1.199-3.84c0.195-1.154,1.117-1.979,0.96-2.64   C117.505,106.084,113.883,106.265,112.56,105.12z M108.72,117.36c1.154,0.195,1.979,1.117,2.64,0.96   c-1.444-0.815-1.626-4.438-0.48-5.761c-1.065,0.43-2.342,0.907-3.84,0.721c-0.793-0.1-1.38-0.947-1.92-0.48   c0.916,0.604,0.715,2.325,0.72,3.84c-0.329,0.482-1.206,1.658-0.96,1.92C105.732,117.782,107.297,117.119,108.72,117.36z"/>
	<path fill-rule="evenodd" clip-rule="evenodd" d="M92.4,89.04c0.141-0.032,1.625-0.399,2.4-0.24c1.428,0.293,3.322,2.181,3.6,3.84   c0.526,3.143-1.923,6.239-5.52,5.76c-2.34-0.312-5.349-3.491-3.6-6.96C89.843,90.323,90.697,89.431,92.4,89.04z"/>
	<path fill-rule="evenodd" clip-rule="evenodd" d="M119.04,97.2c-1.208-1.121-1.694-2.316-1.44-4.32c0.401-3.152,3.145-4.602,6-4.08   c1.549,0.283,3.298,2.074,3.601,3.6C128.08,96.842,122.662,100.561,119.04,97.2z"/>
	<path fill-rule="evenodd" clip-rule="evenodd" d="M78.48,89.28c1.045-0.17,2.77-0.014,3.84,0.96c2.55,2.321,1.224,7.92-3.12,7.92   c-0.933,0-2.463-0.584-3.12-1.2c-1.2-1.124-1.839-3.72-0.72-5.52C75.986,90.433,76.67,89.575,78.48,89.28z"/>
	<path fill-rule="evenodd" clip-rule="evenodd" d="M136.08,89.28c2.564-0.404,5.28,1.324,5.28,4.32c0,2.256-1.894,4.463-4.32,4.56   c-2.248,0.089-4.8-1.349-4.8-4.56C132.24,91.039,133.677,89.659,136.08,89.28z"/>
	<path fill-rule="evenodd" clip-rule="evenodd" d="M63.84,89.76c2.654-0.62,5.34,1.128,5.04,4.32c-0.157,1.666-1.767,3.376-3.36,3.6   c-1.979,0.278-5.118-1.176-4.8-4.56C60.853,91.705,61.741,90.25,63.84,89.76z"/>
	<path fill-rule="evenodd" clip-rule="evenodd" d="M150.24,89.76c0.786-0.173,1.919-0.244,2.88,0.24   c0.86,0.434,2.029,1.486,2.16,3.12c0.178,2.229-1.479,4.846-4.32,4.56c-1.854-0.187-4.091-1.417-3.84-4.56   C147.237,91.652,148.074,90.237,150.24,89.76z"/>
	<path fill-rule="evenodd" clip-rule="evenodd" d="M49.44,90.24c0.777-0.193,1.246-0.376,1.92-0.24   c1.05,0.212,2.448,1.578,2.64,2.88c0.33,2.239-1.191,4.071-2.88,4.32c-2.088,0.308-4.598-1.096-4.32-4.08   C46.913,91.91,47.545,90.711,49.44,90.24z"/>
	<path fill-rule="evenodd" clip-rule="evenodd" d="M164.64,90.24c0.777-0.193,1.246-0.376,1.92-0.24   c1.051,0.212,2.448,1.578,2.641,2.88c0.33,2.239-1.191,4.071-2.88,4.32c-2.088,0.308-4.599-1.096-4.32-4.08   C162.112,91.91,162.745,90.711,164.64,90.24z"/>
	<path fill-rule="evenodd" clip-rule="evenodd" d="M35.52,90.72c0.101-0.019,0.212-0.257,0.48-0.24   c1.737,0.108,3.039,1.468,3.12,2.88c0.097,1.692-1.528,3.283-2.88,3.36c-1.461,0.083-3.36-1.213-3.36-3.12   C32.88,92.005,33.967,91.001,35.52,90.72z"/>
	<path fill-rule="evenodd" clip-rule="evenodd" d="M179.52,90.72c0.101-0.019,0.213-0.257,0.48-0.24   c1.737,0.108,3.039,1.468,3.12,2.88c0.097,1.692-1.528,3.283-2.88,3.36c-1.461,0.083-3.36-1.213-3.36-3.12   C176.88,92.005,177.967,91.001,179.52,90.72z"/>
	<path fill-rule="evenodd" clip-rule="evenodd" d="M21.12,91.44c1.19-0.274,2.739,0.202,2.88,1.92c0.267,3.251-4.8,3.438-4.8,0.24   C19.2,92.839,19.409,91.834,21.12,91.44z"/>
	<path fill-rule="evenodd" clip-rule="evenodd" d="M193.92,91.44c1.19-0.274,2.739,0.202,2.88,1.92c0.267,3.251-4.8,3.438-4.8,0.24   C192,92.839,192.209,91.834,193.92,91.44z"/>
	<path fill-rule="evenodd" clip-rule="evenodd" d="M8.4,92.88c0.252,1.532-0.388,2.172-1.92,1.92   C4.889,93.537,7.136,91.289,8.4,92.88z"/>
	<path fill-rule="evenodd" clip-rule="evenodd" d="M210,92.88c0.252,1.532-0.388,2.172-1.92,1.92   C206.488,93.537,208.736,91.289,210,92.88z"/>
	<path fill-rule="evenodd" clip-rule="evenodd" d="M85.44,96.24c1.32-0.253,2.376-0.041,3.6,0.72c0.636,0.396,1.158,0.725,1.68,1.92   c1.268,2.906-0.705,6.583-4.08,6.72c-0.881,0.036-1.979-0.225-2.88-0.72c-0.102-0.056-0.154-0.441-0.24-0.48   c-0.544-0.245-1.022-0.722-1.44-1.68c-0.765-1.753-0.41-3.059,0.48-4.56C83.059,97.317,83.75,96.563,85.44,96.24z"/>
	<path fill-rule="evenodd" clip-rule="evenodd" d="M128.64,96.24c1.32-0.253,2.377-0.041,3.601,0.72   c0.636,0.396,1.158,0.725,1.68,1.92c1.269,2.906-0.705,6.583-4.08,6.72c-0.881,0.036-1.979-0.225-2.88-0.72   c-0.102-0.056-0.154-0.441-0.24-0.48c-0.544-0.245-1.021-0.722-1.439-1.68c-0.766-1.753-0.41-3.059,0.479-4.56   C126.259,97.317,126.949,96.563,128.64,96.24z"/>
	<path fill-rule="evenodd" clip-rule="evenodd" d="M70.8,96.72c1.129-0.287,2.174-0.467,3.12,0c0.107,0.053,0.152,0.44,0.24,0.48   c0.117,0.052,0.379-0.076,0.48,0c0.75,0.564,1.608,2.077,1.68,2.4c0.265,1.187-0.117,2.407-0.48,3.12   c-0.858,1.687-3.224,3.209-5.76,1.92c-1.296-0.659-3.004-2.209-2.4-5.04c0.129-0.604,1.232-2.35,2.64-2.88   C70.459,96.667,70.655,96.757,70.8,96.72z"/>
	<path fill-rule="evenodd" clip-rule="evenodd" d="M142.8,96.72c1.129-0.287,2.174-0.467,3.12,0c0.107,0.053,0.152,0.44,0.24,0.48   c0.116,0.052,0.38-0.076,0.479,0c0.75,0.564,1.608,2.077,1.681,2.4c0.264,1.187-0.118,2.407-0.48,3.12   c-0.857,1.687-3.224,3.209-5.76,1.92c-1.296-0.659-3.005-2.209-2.4-5.04c0.129-0.604,1.232-2.35,2.641-2.88   C142.459,96.667,142.655,96.757,142.8,96.72z"/>
	<path fill-rule="evenodd" clip-rule="evenodd" d="M56.4,97.2c1.131-0.323,1.666-0.418,2.4-0.24c0.745,0.18,2.389,1.639,2.64,2.88   c0.513,2.535-1.432,5.291-4.56,4.8c-1.61-0.253-3.53-1.68-3.12-4.56C53.902,99.08,54.661,97.696,56.4,97.2z"/>
	<path fill-rule="evenodd" clip-rule="evenodd" d="M157.2,97.2c0.858-0.24,2.354-0.342,3.359,0.24   c0.099,0.057,0.157,0.442,0.24,0.48c0.7,0.315,0.255-0.252,0.96,0.96c0.493,0.847,0.731,2.816,0,4.08   c-0.057,0.099-0.442,0.156-0.479,0.24c-0.206,0.457-0.271,0.559-0.96,0.96c-1.884,1.096-6.354,0.284-5.761-4.08   C154.71,98.978,155.406,97.701,157.2,97.2z"/>
	<path fill-rule="evenodd" clip-rule="evenodd" d="M42.24,97.68c0.743-0.203,1.333-0.375,1.92-0.24   c0.849,0.196,2.276,1.707,2.4,2.88c0.206,1.954-1.258,3.669-2.88,3.84c-1.589,0.167-3.996-0.652-3.84-3.6   C39.906,99.317,40.48,98.16,42.24,97.68z"/>
	<path fill-rule="evenodd" clip-rule="evenodd" d="M171.84,97.68c2.033-0.542,3.175,0.104,4.08,1.68   c1.008,1.755-0.619,4.515-2.4,4.8c-1.743,0.279-4.394-0.888-4.079-3.84C169.555,99.24,170.118,98.138,171.84,97.68z"/>
	<path fill-rule="evenodd" clip-rule="evenodd" d="M186.96,98.16c4.077-0.496,3.803,5.766,0,5.52   C184.097,103.495,183.171,98.621,186.96,98.16z"/>
	<path fill-rule="evenodd" clip-rule="evenodd" d="M27.6,98.4c0.701-0.293,1.827-0.432,2.4-0.24c0.117,0.039,0.149,0.439,0.24,0.48   c0.104,0.047,0.399-0.075,0.48,0c0.203,0.188,0.066,0.488,0.24,0.72c0.044,0.059,0.465,0.196,0.48,0.24   c0.458,1.4-0.121,2.521-0.72,3.12c-0.446,0.446-1.595,1.218-3.12,0.72c-0.117-0.038-0.149-0.439-0.24-0.48   c-0.104-0.047-0.399,0.075-0.48,0c-0.203-0.188-0.066-0.488-0.24-0.72c-0.044-0.059-0.466-0.196-0.48-0.24   C25.687,100.547,25.968,99.084,27.6,98.4z"/>
	<path fill-rule="evenodd" clip-rule="evenodd" d="M13.68,99.12c3.484-1.459,3.28,4.534,0,3.6   C12.185,102.294,12.114,99.776,13.68,99.12z"/>
	<path fill-rule="evenodd" clip-rule="evenodd" d="M200.88,99.12c3.484-1.459,3.28,4.534,0,3.6   C199.385,102.294,199.313,99.776,200.88,99.12z"/>
	<path fill-rule="evenodd" clip-rule="evenodd" d="M0,100.08c1-0.265,1,1.705,0,1.44C0,101.04,0,100.56,0,100.08z"/>
	<path fill-rule="evenodd" clip-rule="evenodd" d="M215.52,100.08c0.868-0.228,0.335,0.945,0.48,1.44   C215.093,101.726,215.15,100.446,215.52,100.08z"/>
	<path fill-rule="evenodd" clip-rule="evenodd" d="M78,103.68c1.588-0.387,2.827-0.248,3.84,0.48c0.083,0.06,0.166,0.446,0.24,0.48   c0.393,0.177,0.678,0.327,0.96,0.72c0.616,0.857,0.934,3.363,0.48,4.56c-0.334,0.881-1.826,2.183-2.4,2.4   c-3.917,1.486-8.342-2.684-5.76-6.72C75.951,104.676,76.472,104.052,78,103.68z"/>
	<path fill-rule="evenodd" clip-rule="evenodd" d="M135.6,103.68c1.589-0.387,2.827-0.248,3.841,0.48   c0.083,0.06,0.165,0.446,0.239,0.48c0.394,0.177,0.678,0.327,0.96,0.72c0.616,0.857,0.935,3.363,0.48,4.56   c-0.334,0.881-1.826,2.183-2.4,2.4c-3.916,1.486-8.342-2.684-5.76-6.72C133.551,104.676,134.072,104.052,135.6,103.68z"/>
	<path fill-rule="evenodd" clip-rule="evenodd" d="M63.6,104.16c1.16-0.305,1.633-0.404,2.4-0.24   c-0.024-0.005,0.603,0.183,0.72,0.24c0.107,0.053,0.152,0.44,0.24,0.48c1.261,0.568,2.359,2.504,1.92,4.56   c-0.214,1.005-1.644,2.604-2.88,2.88c-0.913,0.203-2.48,0.079-3.12-0.24c-0.106-0.053-0.152-0.44-0.24-0.479   c-0.563-0.254-0.863-0.598-1.44-1.2c-0.312-0.325-0.784-1.936-0.48-3.36C60.901,105.951,61.844,104.622,63.6,104.16z"/>
	<path fill-rule="evenodd" clip-rule="evenodd" d="M150,104.16c1.122-0.281,1.833-0.357,2.4-0.24c1.553,0.32,3.502,2.315,2.88,5.28   c-0.844,4.022-7.375,3.668-8.16,0C146.556,106.562,147.8,104.711,150,104.16z"/>
	<path fill-rule="evenodd" clip-rule="evenodd" d="M49.2,104.64c0.927-0.273,1.797-0.387,2.4-0.24c0.572,0.14,2.186,1.53,2.4,2.4   c0.849,3.448-2.356,5.401-4.8,4.8c-0.577-0.142-2.215-1.651-2.4-2.399C46.295,107.164,47.059,105.27,49.2,104.64z"/>
	<path fill-rule="evenodd" clip-rule="evenodd" d="M164.4,104.64c0.927-0.273,1.797-0.387,2.399-0.24c0.573,0.14,2.187,1.53,2.4,2.4   c0.849,3.448-2.356,5.401-4.8,4.8c-0.577-0.142-2.215-1.651-2.4-2.399C161.495,107.164,162.26,105.27,164.4,104.64z"/>
	<path fill-rule="evenodd" clip-rule="evenodd" d="M35.28,105.12c4.648-1.044,5.002,5.789,0.96,6c-1.749,0.091-3.36-0.974-3.36-3.12   C32.88,106.358,33.541,105.511,35.28,105.12z"/>
	<path fill-rule="evenodd" clip-rule="evenodd" d="M179.28,105.12c4.647-1.044,5.002,5.789,0.96,6   c-1.749,0.091-3.36-0.974-3.36-3.12C176.88,106.358,177.541,105.511,179.28,105.12z"/>
	<path fill-rule="evenodd" clip-rule="evenodd" d="M20.88,105.84c3.682-1.145,4.026,4.332,0.96,4.561   c-1.108,0.082-2.519-0.528-2.64-2.16C19.095,106.832,19.49,106.272,20.88,105.84z"/>
	<path fill-rule="evenodd" clip-rule="evenodd" d="M193.68,105.84c3.683-1.145,4.026,4.332,0.96,4.561   c-1.107,0.082-2.519-0.528-2.64-2.16C191.896,106.832,192.29,106.272,193.68,105.84z"/>
	<path fill-rule="evenodd" clip-rule="evenodd" d="M6.72,106.8c0.642-0.27,1.748-0.159,1.92,0.96c0.268,1.74-2.679,2.298-2.88,0.48   C5.7,107.696,5.69,107.233,6.72,106.8z"/>
	<path fill-rule="evenodd" clip-rule="evenodd" d="M208.32,106.8c0.642-0.27,1.748-0.159,1.92,0.96c0.268,1.74-2.68,2.298-2.88,0.48   C207.3,107.696,207.29,107.233,208.32,106.8z"/>
	<path fill-rule="evenodd" clip-rule="evenodd" d="M85.44,110.64c1.32-0.252,2.376-0.04,3.6,0.721   c0.636,0.395,1.158,0.725,1.68,1.92c1.268,2.905-0.705,6.583-4.08,6.72c-0.881,0.035-1.979-0.225-2.88-0.72   c-0.102-0.056-0.154-0.441-0.24-0.48c-0.544-0.245-1.022-0.722-1.44-1.68c-0.765-1.753-0.41-3.059,0.48-4.561   C83.059,111.718,83.75,110.964,85.44,110.64z"/>
	<path fill-rule="evenodd" clip-rule="evenodd" d="M128.64,110.64c1.32-0.252,2.377-0.04,3.601,0.721   c0.636,0.395,1.158,0.725,1.68,1.92c1.269,2.905-0.705,6.583-4.08,6.72c-0.881,0.035-1.979-0.225-2.88-0.72   c-0.102-0.056-0.154-0.441-0.24-0.48c-0.544-0.245-1.021-0.722-1.439-1.68c-0.766-1.753-0.41-3.059,0.479-4.561   C126.259,111.718,126.949,110.964,128.64,110.64z"/>
	<path fill-rule="evenodd" clip-rule="evenodd" d="M70.8,111.12c1.129-0.287,2.174-0.467,3.12,0c0.107,0.053,0.152,0.44,0.24,0.479   c0.117,0.053,0.379-0.075,0.48,0c0.75,0.564,1.608,2.078,1.68,2.4c0.265,1.187-0.117,2.407-0.48,3.12   c-0.858,1.688-3.224,3.21-5.76,1.92c-1.296-0.659-3.004-2.209-2.4-5.04c0.129-0.604,1.232-2.35,2.64-2.88   C70.459,111.067,70.655,111.157,70.8,111.12z"/>
	<path fill-rule="evenodd" clip-rule="evenodd" d="M142.8,111.12c2.195-0.55,3.26-0.101,4.32,0.96   c0.788,0.788,1.699,3.124,0.96,5.04c-0.272,0.705-1.543,1.922-2.16,2.16c-3.097,1.195-7.355-0.978-6-5.521   C140.21,112.789,140.869,111.604,142.8,111.12z"/>
	<path fill-rule="evenodd" clip-rule="evenodd" d="M56.4,111.6c1.131-0.322,1.666-0.417,2.4-0.239c0.745,0.18,2.389,1.639,2.64,2.88   c0.513,2.534-1.432,5.291-4.56,4.8c-1.61-0.253-3.53-1.681-3.12-4.56C53.902,113.479,54.661,112.096,56.4,111.6z"/>
	<path fill-rule="evenodd" clip-rule="evenodd" d="M157.2,111.6c0.858-0.239,2.354-0.341,3.359,0.24   c0.099,0.058,0.157,0.442,0.24,0.48c0.7,0.315,0.255-0.253,0.96,0.96c0.493,0.847,0.731,2.816,0,4.08   c-0.057,0.099-0.442,0.156-0.479,0.239c-0.206,0.457-0.271,0.559-0.96,0.96c-1.884,1.097-6.354,0.285-5.761-4.079   C154.71,113.377,155.406,112.101,157.2,111.6z"/>
	<path fill-rule="evenodd" clip-rule="evenodd" d="M42.24,112.08c0.743-0.202,1.333-0.375,1.92-0.24   c0.849,0.195,2.276,1.707,2.4,2.88c0.206,1.954-1.258,3.669-2.88,3.84c-1.589,0.168-3.996-0.651-3.84-3.6   C39.906,113.718,40.48,112.56,42.24,112.08z"/>
	<path fill-rule="evenodd" clip-rule="evenodd" d="M171.84,112.08c2.033-0.541,3.175,0.104,4.08,1.68   c1.008,1.755-0.619,4.516-2.4,4.8c-1.743,0.279-4.394-0.888-4.079-3.84C169.555,113.64,170.118,112.538,171.84,112.08z"/>
	<path fill-rule="evenodd" clip-rule="evenodd" d="M186.96,112.56c4.077-0.495,3.803,5.767,0,5.521   C184.097,117.895,183.171,113.021,186.96,112.56z"/>
	<path fill-rule="evenodd" clip-rule="evenodd" d="M27.6,112.8c0.701-0.294,1.827-0.432,2.4-0.24c0.117,0.04,0.149,0.439,0.24,0.48   c0.104,0.047,0.399-0.075,0.48,0c0.203,0.188,0.066,0.488,0.24,0.72c0.044,0.059,0.465,0.196,0.48,0.24   c0.458,1.4-0.121,2.521-0.72,3.12c-0.446,0.446-1.595,1.219-3.12,0.72c-0.117-0.038-0.149-0.439-0.24-0.479   c-0.104-0.047-0.399,0.075-0.48,0c-0.203-0.188-0.066-0.488-0.24-0.721c-0.044-0.059-0.466-0.195-0.48-0.239   C25.687,114.947,25.968,113.484,27.6,112.8z"/>
	<path fill-rule="evenodd" clip-rule="evenodd" d="M13.68,113.52c3.484-1.458,3.28,4.534,0,3.601   C12.185,116.694,12.114,114.176,13.68,113.52z"/>
	<path fill-rule="evenodd" clip-rule="evenodd" d="M200.88,113.52c3.484-1.458,3.28,4.534,0,3.601   C199.385,116.694,199.313,114.176,200.88,113.52z"/>
	<path fill-rule="evenodd" clip-rule="evenodd" d="M0,114.48c1-0.265,1,1.704,0,1.439C0,115.44,0,114.96,0,114.48z"/>
	<path fill-rule="evenodd" clip-rule="evenodd" d="M215.52,114.48c0.868-0.228,0.335,0.944,0.48,1.439   C215.093,116.126,215.15,114.846,215.52,114.48z"/>
	<path fill-rule="evenodd" clip-rule="evenodd" d="M96.96,118.8c1.208,1.121,1.695,2.316,1.44,4.32c-0.401,3.152-3.144,4.603-6,4.08   c-1.548-0.283-3.298-2.074-3.6-3.601C87.92,119.158,93.337,115.438,96.96,118.8z"/>
	<path fill-rule="evenodd" clip-rule="evenodd" d="M118.8,119.04c1.121-1.208,2.316-1.694,4.32-1.44c3.152,0.401,4.603,3.145,4.08,6   c-0.283,1.549-2.074,3.298-3.601,3.601C119.158,128.08,115.438,122.662,118.8,119.04z"/>
	<path fill-rule="evenodd" clip-rule="evenodd" d="M78.48,118.08c1.045-0.17,2.77-0.015,3.84,0.96c2.55,2.321,1.224,7.92-3.12,7.92   c-0.933,0-2.463-0.584-3.12-1.2c-1.2-1.124-1.839-3.72-0.72-5.52C75.986,119.232,76.67,118.375,78.48,118.08z"/>
	<path fill-rule="evenodd" clip-rule="evenodd" d="M136.08,118.08c2.564-0.404,5.28,1.324,5.28,4.32c0,2.256-1.894,4.463-4.32,4.56   c-2.248,0.089-4.8-1.349-4.8-4.56C132.24,119.839,133.677,118.459,136.08,118.08z"/>
	<path fill-rule="evenodd" clip-rule="evenodd" d="M63.84,118.56c2.654-0.619,5.34,1.129,5.04,4.32   c-0.157,1.666-1.767,3.376-3.36,3.601c-1.979,0.277-5.118-1.176-4.8-4.561C60.853,120.505,61.741,119.05,63.84,118.56z"/>
	<path fill-rule="evenodd" clip-rule="evenodd" d="M150.24,118.56c0.786-0.173,1.919-0.244,2.88,0.24   c0.874,0.441,2.032,1.52,2.16,3.12c0.183,2.292-1.524,4.842-4.32,4.561c-1.854-0.188-4.091-1.417-3.84-4.561   C147.237,120.452,148.074,119.037,150.24,118.56z"/>
	<path fill-rule="evenodd" clip-rule="evenodd" d="M49.44,119.04c0.777-0.193,1.246-0.376,1.92-0.24   c1.05,0.212,2.448,1.578,2.64,2.88c0.33,2.239-1.191,4.071-2.88,4.32c-2.088,0.308-4.598-1.096-4.32-4.08   C46.913,120.71,47.545,119.511,49.44,119.04z"/>
	<path fill-rule="evenodd" clip-rule="evenodd" d="M164.64,119.04c0.777-0.193,1.246-0.376,1.92-0.24   c1.051,0.212,2.448,1.578,2.641,2.88c0.33,2.239-1.191,4.071-2.88,4.32c-2.088,0.308-4.599-1.096-4.32-4.08   C162.112,120.71,162.745,119.511,164.64,119.04z"/>
	<path fill-rule="evenodd" clip-rule="evenodd" d="M35.52,119.52c0.101-0.018,0.212-0.256,0.48-0.239   c1.737,0.107,3.039,1.468,3.12,2.88c0.097,1.691-1.528,3.282-2.88,3.359c-1.461,0.084-3.36-1.212-3.36-3.119   C32.88,120.805,33.967,119.801,35.52,119.52z"/>
	<path fill-rule="evenodd" clip-rule="evenodd" d="M179.52,119.52c0.101-0.018,0.213-0.256,0.48-0.239   c1.737,0.107,3.039,1.468,3.12,2.88c0.097,1.691-1.528,3.282-2.88,3.359c-1.461,0.084-3.36-1.212-3.36-3.119   C176.88,120.805,177.967,119.801,179.52,119.52z"/>
	<path fill-rule="evenodd" clip-rule="evenodd" d="M21.12,120.24c1.19-0.274,2.739,0.201,2.88,1.92c0.267,3.251-4.8,3.438-4.8,0.24   C19.2,121.639,19.409,120.635,21.12,120.24z"/>
	<path fill-rule="evenodd" clip-rule="evenodd" d="M193.92,120.24c1.19-0.274,2.739,0.201,2.88,1.92c0.267,3.251-4.8,3.438-4.8,0.24   C192,121.639,192.209,120.635,193.92,120.24z"/>
	<path fill-rule="evenodd" clip-rule="evenodd" d="M8.4,121.68c0.252,1.532-0.388,2.172-1.92,1.92   C4.889,122.337,7.136,120.089,8.4,121.68z"/>
	<path fill-rule="evenodd" clip-rule="evenodd" d="M210,121.68c0.252,1.532-0.388,2.172-1.92,1.92   C206.488,122.337,208.736,120.089,210,121.68z"/>
	<path fill-rule="evenodd" clip-rule="evenodd" d="M99.84,125.04c1.32-0.253,2.376-0.041,3.6,0.72   c0.636,0.396,1.159,0.726,1.68,1.92c1.268,2.906-0.705,6.584-4.08,6.721c-0.881,0.035-1.979-0.226-2.88-0.721   c-0.102-0.056-0.155-0.441-0.24-0.479c-0.544-0.245-1.021-0.722-1.44-1.681c-0.765-1.752-0.409-3.058,0.48-4.56   C97.459,126.117,98.149,125.363,99.84,125.04z"/>
	<path fill-rule="evenodd" clip-rule="evenodd" d="M114.24,125.04c1.319-0.253,2.376-0.041,3.6,0.72   c0.636,0.396,1.158,0.726,1.68,1.92c1.269,2.906-0.704,6.584-4.079,6.721c-0.882,0.035-1.979-0.226-2.881-0.721   c-0.102-0.056-0.154-0.441-0.239-0.479c-0.545-0.245-1.022-0.722-1.44-1.681c-0.765-1.752-0.409-3.058,0.48-4.56   C111.859,126.117,112.55,125.363,114.24,125.04z"/>
	<path fill-rule="evenodd" clip-rule="evenodd" d="M85.44,125.28c2.74-0.568,5.52,1.385,5.52,4.319c0,2.485-2.215,4.561-4.56,4.561   c-2.38,0-4.682-1.785-4.56-4.8C81.927,127.196,83.076,125.771,85.44,125.28z"/>
	<path fill-rule="evenodd" clip-rule="evenodd" d="M128.64,125.28c2.74-0.568,5.521,1.385,5.521,4.319   c0,2.485-2.216,4.561-4.561,4.561c-2.38,0-4.682-1.785-4.56-4.8C125.127,127.197,126.275,125.771,128.64,125.28z"/>
	<path fill-rule="evenodd" clip-rule="evenodd" d="M70.56,125.76c2.261-0.685,3.12-0.24,4.32,0.96c0.741,0.741,1.767,2.095,1.2,4.32   c-0.201,0.788-1.667,2.389-2.64,2.64c-2.04,0.528-3.259-0.139-4.32-1.199c-0.743-0.743-1.786-2.019-1.2-4.32   C68.066,127.585,69.076,126.21,70.56,125.76z"/>
	<path fill-rule="evenodd" clip-rule="evenodd" d="M142.56,125.76c2.262-0.685,3.12-0.24,4.32,0.96   c0.741,0.741,1.767,2.095,1.2,4.32c-0.2,0.788-1.668,2.389-2.64,2.64c-2.04,0.528-3.259-0.139-4.32-1.199   c-0.742-0.743-1.786-2.019-1.2-4.32C140.066,127.585,141.076,126.21,142.56,125.76z"/>
	<path fill-rule="evenodd" clip-rule="evenodd" d="M57.12,126c0.091-0.013,0.214-0.276,0.48-0.24c1.636,0.225,2.483,0.896,3.12,1.92   c0.134,0.216,0.689,1.062,0.72,1.681c0.147,2.972-3.23,4.933-5.76,3.359c-0.795-0.494-1.92-1.475-1.92-3.12   c0-0.467,0.229-1.555,0.48-1.92c0.059-0.086,0.445-0.163,0.48-0.239C55.066,126.673,55.614,126.211,57.12,126z"/>
	<path fill-rule="evenodd" clip-rule="evenodd" d="M157.68,126c1.682-0.304,2.935,0.227,3.601,0.96c0.235,0.26,0.926,1.655,0.96,2.4   c0.234,5.186-7.681,5.458-7.681,0.239c0-0.485,0.131-1.146,0.24-1.439C155.202,127.088,156.102,126.285,157.68,126z"/>
	<path fill-rule="evenodd" clip-rule="evenodd" d="M42.96,126.48c0.894-0.096,2.061,0.141,2.64,0.72c1.164,1.163,0.896,3.904,0,4.8   c-1.065,1.064-3.684,1.116-4.8,0c-0.411-0.411-1.002-1.859-0.96-2.64c0.025-0.455,0.518-1.671,0.72-1.92   C41.049,126.838,42.024,126.58,42.96,126.48z"/>
	<path fill-rule="evenodd" clip-rule="evenodd" d="M172.32,126.48c1.248-0.199,2.334,0.175,2.88,0.72   c1.72,1.719,0.55,5.623-2.16,5.76c-1.883,0.095-4.335-2.055-3.36-4.56C170.074,127.387,170.83,126.717,172.32,126.48z"/>
	<path fill-rule="evenodd" clip-rule="evenodd" d="M28.08,127.2c0.849-0.23,1.629-0.271,2.16,0c0.497,0.255,1.111,1.261,1.2,1.92   c0.503,3.733-5.035,4.374-5.28,0.72C26.045,128.127,26.577,127.607,28.08,127.2z"/>
	<path fill-rule="evenodd" clip-rule="evenodd" d="M186.48,127.2c0.849-0.23,1.629-0.271,2.159,0c0.497,0.254,1.111,1.261,1.2,1.92   c0.504,3.733-5.035,4.374-5.28,0.72C184.445,128.127,184.977,127.607,186.48,127.2z"/>
	<path fill-rule="evenodd" clip-rule="evenodd" d="M13.44,128.16c0.769-0.676,2.297-0.068,2.64,0.479   c0.896,2.716-2.266,3.354-3.36,1.92C12.708,129.508,12.552,128.313,13.44,128.16z"/>
	<path fill-rule="evenodd" clip-rule="evenodd" d="M200.64,128.16c0.77-0.676,2.298-0.068,2.641,0.479   c0.896,2.716-2.266,3.354-3.36,1.92C199.907,129.508,199.752,128.313,200.64,128.16z"/>
	<path fill-rule="evenodd" clip-rule="evenodd" d="M92.88,132.48c2.565-0.405,5.28,1.323,5.28,4.319c0,2.257-1.893,4.464-4.32,4.561   c-2.248,0.089-4.8-1.349-4.8-4.561C89.04,134.239,90.476,132.859,92.88,132.48z"/>
	<path fill-rule="evenodd" clip-rule="evenodd" d="M106.8,132.48c1.589-0.387,2.827-0.249,3.84,0.479   c0.083,0.06,0.166,0.446,0.24,0.48c0.394,0.177,0.678,0.327,0.96,0.72c0.616,0.856,0.935,3.363,0.48,4.56   c-0.334,0.881-1.826,2.183-2.4,2.4c-3.917,1.486-8.342-2.684-5.76-6.72C104.751,133.477,105.272,132.852,106.8,132.48z"/>
	<path fill-rule="evenodd" clip-rule="evenodd" d="M121.68,132.48c2.565-0.405,5.28,1.323,5.28,4.319   c0,2.257-1.893,4.464-4.32,4.561c-2.248,0.089-4.8-1.349-4.8-4.561C117.84,134.239,119.276,132.859,121.68,132.48z"/>
	<path fill-rule="evenodd" clip-rule="evenodd" d="M78.72,132.72c0.022-0.003,0.039-0.245,0.24-0.239   c2.327,0.057,4.46,1.84,4.56,4.079c0.116,2.61-2.602,5.105-5.28,4.32c-1.737-0.509-4.193-2.674-3.12-5.52   C75.555,134.206,76.82,132.973,78.72,132.72z"/>
	<path fill-rule="evenodd" clip-rule="evenodd" d="M136.32,132.72c0.021-0.003,0.039-0.245,0.239-0.239   c2.327,0.057,4.461,1.84,4.561,4.079c0.115,2.61-2.602,5.105-5.28,4.32c-1.737-0.509-4.192-2.674-3.12-5.52   C133.155,134.206,134.42,132.973,136.32,132.72z"/>
	<path fill-rule="evenodd" clip-rule="evenodd" d="M63.84,133.2c3.751-0.876,5.629,2.524,4.56,5.28   c-0.507,1.306-2.779,2.89-5.28,1.92C60.69,139.457,59.765,134.151,63.84,133.2z"/>
	<path fill-rule="evenodd" clip-rule="evenodd" d="M150,133.2c1.131-0.322,1.665-0.418,2.4-0.24c0.744,0.181,2.389,1.639,2.64,2.88   c0.513,2.535-1.433,5.291-4.56,4.8c-1.61-0.253-3.531-1.68-3.12-4.56C147.503,135.08,148.261,133.696,150,133.2z"/>
	<path fill-rule="evenodd" clip-rule="evenodd" d="M49.2,133.68c0.989-0.317,2.214-0.457,2.88,0c0.086,0.06,0.164,0.446,0.24,0.48   c0.373,0.168,1.261,0.746,1.44,1.439c0.302,1.166-0.079,2.496-0.48,3.12c-0.67,1.045-3.006,2.111-4.8,0.96   C46.616,138.483,46.347,134.598,49.2,133.68z"/>
	<path fill-rule="evenodd" clip-rule="evenodd" d="M164.4,133.68c0.988-0.317,2.214-0.457,2.88,0c0.086,0.06,0.163,0.446,0.239,0.48   c0.373,0.168,1.261,0.746,1.44,1.439c0.302,1.166-0.079,2.496-0.479,3.12c-0.671,1.045-3.007,2.111-4.801,0.96   C161.816,138.483,161.547,134.598,164.4,133.68z"/>
	<path fill-rule="evenodd" clip-rule="evenodd" d="M35.28,134.16c1.616-0.41,3.6,0.519,3.6,2.64c0,1.611-1.397,2.808-2.64,2.88   c-1.34,0.079-3.12-0.783-3.12-2.88C33.12,135.342,33.672,134.568,35.28,134.16z"/>
	<path fill-rule="evenodd" clip-rule="evenodd" d="M179.28,134.16c1.615-0.41,3.6,0.519,3.6,2.64c0,1.611-1.396,2.808-2.64,2.88   c-1.34,0.079-3.12-0.783-3.12-2.88C177.12,135.342,177.673,134.568,179.28,134.16z"/>
	<path fill-rule="evenodd" clip-rule="evenodd" d="M20.88,134.88c3.159-1.133,3.827,3.843,0.96,4.08   C19.848,139.125,18.123,135.869,20.88,134.88z"/>
	<path fill-rule="evenodd" clip-rule="evenodd" d="M193.68,134.88c3.159-1.133,3.827,3.843,0.96,4.08   C192.648,139.125,190.923,135.869,193.68,134.88z"/>
	<path fill-rule="evenodd" clip-rule="evenodd" d="M8.16,136.56c0.074,0.954-0.461,1.3-1.44,1.2   c-0.106-0.214-0.211-0.429-0.48-0.479C5.79,135.706,7.903,135.398,8.16,136.56z"/>
	<path fill-rule="evenodd" clip-rule="evenodd" d="M209.76,136.56c0.074,0.954-0.461,1.3-1.439,1.2   c-0.106-0.214-0.211-0.429-0.48-0.479C207.39,135.706,209.503,135.398,209.76,136.56z"/>
	<path fill-rule="evenodd" clip-rule="evenodd" d="M99.6,139.92c1.129-0.286,2.174-0.467,3.12,0c0.107,0.053,0.152,0.44,0.24,0.48   c0.117,0.052,0.38-0.076,0.48,0c0.75,0.563,1.608,2.077,1.68,2.399c0.264,1.188-0.118,2.407-0.48,3.12   c-0.858,1.688-3.224,3.21-5.76,1.92c-1.296-0.659-3.004-2.209-2.4-5.04c0.129-0.604,1.232-2.35,2.64-2.88   C99.259,139.867,99.455,139.957,99.6,139.92z"/>
	<path fill-rule="evenodd" clip-rule="evenodd" d="M114,139.92c2.195-0.55,3.26-0.1,4.32,0.96c0.788,0.788,1.699,3.125,0.96,5.04   c-0.272,0.705-1.543,1.922-2.16,2.16c-3.097,1.195-7.355-0.978-6-5.521C111.41,141.589,112.068,140.404,114,139.92z"/>
	<path fill-rule="evenodd" clip-rule="evenodd" d="M84.96,140.16c2.261-0.686,3.12-0.24,4.32,0.96c0.741,0.741,1.767,2.095,1.2,4.32   c-0.201,0.788-1.667,2.388-2.64,2.64c-2.04,0.527-3.259-0.139-4.32-1.2c-0.742-0.742-1.786-2.018-1.2-4.32   C82.466,141.985,83.476,140.609,84.96,140.16z"/>
	<path fill-rule="evenodd" clip-rule="evenodd" d="M128.16,140.16c2.261-0.686,3.12-0.24,4.32,0.96   c0.74,0.741,1.766,2.095,1.199,4.32c-0.2,0.788-1.667,2.388-2.64,2.64c-2.04,0.527-3.259-0.139-4.32-1.2   c-0.742-0.742-1.785-2.018-1.2-4.32C125.666,141.985,126.676,140.609,128.16,140.16z"/>
	<path fill-rule="evenodd" clip-rule="evenodd" d="M70.8,140.4c0.858-0.24,2.354-0.342,3.36,0.239   c0.099,0.058,0.156,0.442,0.24,0.48c0.7,0.315,0.254-0.253,0.96,0.96c0.493,0.847,0.731,2.816,0,4.08   c-0.057,0.099-0.442,0.156-0.48,0.24c-0.206,0.456-0.27,0.559-0.96,0.96c-1.884,1.096-6.354,0.284-5.76-4.08   C68.31,142.178,69.006,140.9,70.8,140.4z"/>
	<path fill-rule="evenodd" clip-rule="evenodd" d="M142.8,140.4c0.858-0.24,2.354-0.342,3.36,0.239   c0.099,0.058,0.156,0.442,0.24,0.48c0.699,0.315,0.254-0.253,0.96,0.96c0.492,0.847,0.73,2.816,0,4.08   c-0.058,0.099-0.442,0.156-0.48,0.24c-0.206,0.456-0.271,0.559-0.96,0.96c-1.884,1.096-6.354,0.284-5.76-4.08   C140.31,142.178,141.007,140.9,142.8,140.4z"/>
	<path fill-rule="evenodd" clip-rule="evenodd" d="M57.12,140.64c4.968-0.765,5.289,6.96,0.48,6.96c-1.56,0-3.6-1.142-3.6-3.6   C54,142.12,55.144,140.944,57.12,140.64z"/>
	<path fill-rule="evenodd" clip-rule="evenodd" d="M157.92,140.64c4.968-0.765,5.289,6.96,0.48,6.96c-1.56,0-3.601-1.142-3.601-3.6   C154.8,142.12,155.943,140.944,157.92,140.64z"/>
	<path fill-rule="evenodd" clip-rule="evenodd" d="M42.96,141.12c1.387-0.157,3.259,0.85,3.36,2.64   c0.081,1.429-1.235,3.268-2.88,3.36c-1.484,0.084-3.439-1.105-3.36-3.36c-0.002,0.069,0.184-0.806,0.24-0.96   C40.573,142.11,41.383,141.299,42.96,141.12z"/>
	<path fill-rule="evenodd" clip-rule="evenodd" d="M172.32,141.12c0.101-0.019,0.212-0.257,0.479-0.24   c1.737,0.108,3.039,1.468,3.12,2.88c0.097,1.692-1.527,3.282-2.88,3.36c-1.461,0.084-3.36-1.213-3.36-3.12   C169.68,142.404,170.768,141.4,172.32,141.12z"/>
	<path fill-rule="evenodd" clip-rule="evenodd" d="M28.08,141.84c1.201-0.371,2.997,0.255,3.12,1.92   c0.105,1.422-1.16,2.566-2.16,2.641C26.722,146.571,25.09,142.764,28.08,141.84z"/>
	<path fill-rule="evenodd" clip-rule="evenodd" d="M186.48,141.84c1.2-0.371,2.997,0.255,3.119,1.92   c0.105,1.422-1.16,2.566-2.159,2.641C185.122,146.571,183.49,142.764,186.48,141.84z"/>
	<path fill-rule="evenodd" clip-rule="evenodd" d="M13.92,142.8c0.642-0.27,1.748-0.159,1.92,0.96c0.268,1.74-2.679,2.298-2.88,0.48   C12.9,143.695,12.89,143.232,13.92,142.8z"/>
	<path fill-rule="evenodd" clip-rule="evenodd" d="M200.88,142.8c2.387-1.461,3.055,2.972,0.48,2.641   C200.288,145.302,199.312,143.86,200.88,142.8z"/>
	<path fill-rule="evenodd" clip-rule="evenodd" d="M92.64,147.36c0.787-0.174,1.919-0.245,2.88,0.239   c0.861,0.435,2.03,1.486,2.16,3.12c0.178,2.229-1.479,4.847-4.32,4.561c-1.854-0.187-4.09-1.417-3.84-4.561   C89.637,149.252,90.475,147.837,92.64,147.36z"/>
	<path fill-rule="evenodd" clip-rule="evenodd" d="M106.8,147.36c1.122-0.281,1.833-0.357,2.4-0.24   c1.553,0.319,3.502,2.315,2.88,5.28c-0.844,4.022-7.375,3.668-8.16,0C103.355,149.762,104.6,147.911,106.8,147.36z"/>
	<path fill-rule="evenodd" clip-rule="evenodd" d="M121.44,147.36c0.786-0.174,1.919-0.245,2.88,0.239   c0.86,0.435,2.029,1.486,2.16,3.12c0.178,2.229-1.479,4.847-4.32,4.561c-1.854-0.187-4.091-1.417-3.84-4.561   C118.438,149.252,119.274,147.837,121.44,147.36z"/>
	<path fill-rule="evenodd" clip-rule="evenodd" d="M78,147.6c1.131-0.322,1.665-0.417,2.4-0.239c0.745,0.18,2.389,1.639,2.64,2.88   c0.512,2.534-1.432,5.291-4.56,4.8c-1.61-0.253-3.53-1.681-3.12-4.56C75.502,149.479,76.261,148.096,78,147.6z"/>
	<path fill-rule="evenodd" clip-rule="evenodd" d="M135.6,147.6c1.131-0.322,1.666-0.417,2.4-0.239   c0.744,0.18,2.389,1.639,2.64,2.88c0.513,2.534-1.432,5.291-4.56,4.8c-1.61-0.253-3.53-1.681-3.12-4.56   C133.103,149.479,133.86,148.096,135.6,147.6z"/>
	<path fill-rule="evenodd" clip-rule="evenodd" d="M64.08,147.84c5.164-1.07,5.592,6.719,0.96,6.96   C60.903,155.016,59.657,148.757,64.08,147.84z"/>
	<path fill-rule="evenodd" clip-rule="evenodd" d="M150.48,147.84c5.163-1.07,5.592,6.719,0.96,6.96   C147.304,155.016,146.057,148.757,150.48,147.84z"/>
	<path fill-rule="evenodd" clip-rule="evenodd" d="M49.68,148.32c4.647-1.044,5.002,5.789,0.96,6c-1.749,0.091-3.36-0.974-3.36-3.12   C47.28,149.559,47.941,148.711,49.68,148.32z"/>
	<path fill-rule="evenodd" clip-rule="evenodd" d="M164.88,148.32c4.647-1.044,5.002,5.789,0.96,6   c-1.749,0.091-3.359-0.974-3.359-3.12C162.48,149.559,163.141,148.711,164.88,148.32z"/>
	<path fill-rule="evenodd" clip-rule="evenodd" d="M35.76,148.8c0.423-0.058,1.058-0.181,1.44,0c0.248,0.117,1.137,1.063,1.2,1.2   c0.287,0.635,0.2,1.958,0,2.4c-0.065,0.145-1.25,1.222-1.2,1.199c-2.286,1.034-4.46-1.749-3.6-3.6c0.006-0.013,1.029-1.126,1.2-1.2   C35.049,148.692,35.488,148.837,35.76,148.8z"/>
	<path fill-rule="evenodd" clip-rule="evenodd" d="M179.76,148.8c0.424-0.058,1.059-0.181,1.44,0c0.248,0.117,1.138,1.063,1.2,1.2   c0.287,0.635,0.199,1.958,0,2.4c-0.066,0.145-1.25,1.222-1.2,1.199c-2.286,1.034-4.46-1.749-3.601-3.6   c0.006-0.013,1.03-1.126,1.2-1.2C179.049,148.692,179.488,148.837,179.76,148.8z"/>
	<path fill-rule="evenodd" clip-rule="evenodd" d="M23.04,150c1.21,2.104-1.299,3.8-2.88,2.4   C18.95,150.296,21.459,148.601,23.04,150z"/>
	<path fill-rule="evenodd" clip-rule="evenodd" d="M195.84,150c1.21,2.104-1.299,3.8-2.88,2.4   C191.75,150.296,194.259,148.601,195.84,150z"/>
	<path fill-rule="evenodd" clip-rule="evenodd" d="M209.52,151.44c-0.477,0.003-0.305,0.654-0.96,0.479   c-0.105-0.214-0.21-0.429-0.479-0.479C208.035,150.265,209.565,150.265,209.52,151.44z"/>
	<path fill-rule="evenodd" clip-rule="evenodd" d="M6.72,150.72c0.32,0,0.64,0,0.96,0c0,0.32,0,0.641,0,0.96   C6.854,151.866,6.534,151.547,6.72,150.72z"/>
	<path fill-rule="evenodd" clip-rule="evenodd" d="M85.68,154.8c1.682-0.304,2.934,0.227,3.6,0.96c0.236,0.26,0.927,1.655,0.96,2.4   c0.234,5.186-7.68,5.459-7.68,0.24c0-0.486,0.13-1.147,0.24-1.44C83.202,155.889,84.102,155.085,85.68,154.8z"/>
	<path fill-rule="evenodd" clip-rule="evenodd" d="M99.6,154.8c0.858-0.239,2.354-0.341,3.36,0.24   c0.099,0.057,0.156,0.442,0.24,0.479c0.7,0.316,0.254-0.252,0.96,0.961c0.493,0.847,0.73,2.815,0,4.079   c-0.057,0.099-0.442,0.157-0.48,0.24c-0.206,0.457-0.271,0.559-0.96,0.96c-1.884,1.097-6.354,0.285-5.76-4.08   C97.11,156.577,97.807,155.301,99.6,154.8z"/>
	<path fill-rule="evenodd" clip-rule="evenodd" d="M114,154.8c0.858-0.239,2.354-0.341,3.36,0.24   c0.099,0.057,0.156,0.442,0.239,0.479c0.7,0.316,0.255-0.252,0.96,0.961c0.493,0.847,0.731,2.815,0,4.079   c-0.057,0.099-0.441,0.157-0.479,0.24c-0.206,0.457-0.271,0.559-0.96,0.96c-1.884,1.097-6.354,0.285-5.76-4.08   C111.51,156.577,112.206,155.301,114,154.8z"/>
	<path fill-rule="evenodd" clip-rule="evenodd" d="M128.88,154.8c1.682-0.304,2.935,0.227,3.601,0.96   c0.235,0.26,0.926,1.655,0.96,2.4c0.233,5.186-7.681,5.459-7.681,0.24c0-0.486,0.13-1.147,0.24-1.44   C126.402,155.889,127.302,155.085,128.88,154.8z"/>
	<path fill-rule="evenodd" clip-rule="evenodd" d="M71.52,155.04c4.968-0.765,5.289,6.96,0.48,6.96c-1.56,0-3.6-1.142-3.6-3.6   C68.4,156.521,69.543,155.345,71.52,155.04z"/>
	<path fill-rule="evenodd" clip-rule="evenodd" d="M143.52,155.04c4.969-0.765,5.289,6.96,0.48,6.96c-1.56,0-3.6-1.142-3.6-3.6   C140.4,156.521,141.544,155.345,143.52,155.04z"/>
	<path fill-rule="evenodd" clip-rule="evenodd" d="M56.64,155.52c1.803-0.523,3.769,0.296,4.08,2.16   c0.301,1.811-0.888,3.588-2.4,3.84c-1.581,0.264-3.996-0.404-3.84-3.359C54.541,157.015,54.954,156.01,56.64,155.52z"/>
	<path fill-rule="evenodd" clip-rule="evenodd" d="M157.44,155.52c1.803-0.523,3.769,0.296,4.079,2.16   c0.302,1.811-0.887,3.588-2.399,3.84c-1.581,0.264-3.996-0.404-3.84-3.359C155.341,157.015,155.754,156.01,157.44,155.52z"/>
	<path fill-rule="evenodd" clip-rule="evenodd" d="M42.48,156c0.849-0.23,1.63-0.271,2.16,0c0.497,0.255,1.111,1.262,1.2,1.92   c0.503,3.733-5.035,4.375-5.28,0.72C40.445,156.927,40.977,156.407,42.48,156z"/>
	<path fill-rule="evenodd" clip-rule="evenodd" d="M172.08,156c0.849-0.23,1.63-0.271,2.16,0c0.497,0.255,1.111,1.262,1.2,1.92   c0.503,3.733-5.036,4.375-5.28,0.72C170.045,156.927,170.577,156.407,172.08,156z"/>
	<path fill-rule="evenodd" clip-rule="evenodd" d="M28.08,156.72c3.484-1.458,3.28,4.534,0,3.601   C26.585,159.895,26.514,157.376,28.08,156.72z"/>
	<path fill-rule="evenodd" clip-rule="evenodd" d="M186.48,156.72c3.483-1.458,3.279,4.534,0,3.601   C184.984,159.895,184.914,157.376,186.48,156.72z"/>
	<path fill-rule="evenodd" clip-rule="evenodd" d="M13.44,158.64c-0.058-1.479,1.979-1.479,1.92,0   C14.93,159.476,13.87,159.476,13.44,158.64z"/>
	<path fill-rule="evenodd" clip-rule="evenodd" d="M200.64,158.64c-0.058-1.479,1.979-1.479,1.92,0   C202.13,159.476,201.07,159.476,200.64,158.64z"/>
	<path fill-rule="evenodd" clip-rule="evenodd" d="M92.64,162.24c0.777-0.193,1.246-0.376,1.92-0.24   c1.05,0.212,2.448,1.578,2.64,2.88c0.33,2.238-1.191,4.071-2.88,4.32c-2.087,0.308-4.598-1.097-4.32-4.08   C90.113,163.91,90.745,162.711,92.64,162.24z"/>
	<path fill-rule="evenodd" clip-rule="evenodd" d="M106.8,162.24c0.927-0.272,1.798-0.387,2.4-0.24c0.572,0.14,2.186,1.53,2.399,2.4   c0.849,3.448-2.355,5.401-4.8,4.8c-0.577-0.143-2.214-1.652-2.4-2.4C103.895,164.765,104.659,162.869,106.8,162.24z"/>
	<path fill-rule="evenodd" clip-rule="evenodd" d="M121.44,162.24c0.776-0.193,1.246-0.376,1.92-0.24   c1.05,0.212,2.447,1.578,2.64,2.88c0.33,2.238-1.19,4.071-2.88,4.32c-2.088,0.308-4.599-1.097-4.32-4.08   C118.913,163.91,119.545,162.711,121.44,162.24z"/>
	<path fill-rule="evenodd" clip-rule="evenodd" d="M78,162.48c0.989-0.318,2.214-0.458,2.88,0c0.087,0.059,0.164,0.445,0.24,0.479   c0.373,0.168,1.26,0.747,1.44,1.44c0.302,1.165-0.08,2.496-0.48,3.119c-0.67,1.045-3.006,2.111-4.8,0.961   C75.416,167.284,75.147,163.397,78,162.48z"/>
	<path fill-rule="evenodd" clip-rule="evenodd" d="M135.6,162.48c0.989-0.318,2.215-0.458,2.881,0   c0.086,0.059,0.163,0.445,0.239,0.479c0.373,0.168,1.261,0.747,1.44,1.44c0.302,1.165-0.08,2.496-0.48,3.119   c-0.67,1.045-3.006,2.111-4.8,0.961C133.016,167.284,132.747,163.397,135.6,162.48z"/>
	<path fill-rule="evenodd" clip-rule="evenodd" d="M64.08,162.72c4.647-1.043,5.002,5.789,0.96,6c-1.749,0.092-3.36-0.973-3.36-3.12   C61.68,163.958,62.341,163.11,64.08,162.72z"/>
	<path fill-rule="evenodd" clip-rule="evenodd" d="M150.48,162.72c4.647-1.043,5.002,5.789,0.96,6   c-1.749,0.092-3.36-0.973-3.36-3.12C148.08,163.958,148.741,163.11,150.48,162.72z"/>
	<path fill-rule="evenodd" clip-rule="evenodd" d="M49.44,163.2c1.612-0.554,3.302,0.155,3.6,1.68   c0.331,1.693-0.784,3.139-1.92,3.36C48.085,168.833,46.208,164.311,49.44,163.2z"/>
	<path fill-rule="evenodd" clip-rule="evenodd" d="M164.64,163.2c1.612-0.554,3.303,0.155,3.601,1.68   c0.33,1.693-0.784,3.139-1.92,3.36C163.285,168.833,161.408,164.311,164.64,163.2z"/>
	<path fill-rule="evenodd" clip-rule="evenodd" d="M35.76,163.68c0.736-0.132,1.65,0.157,1.92,0.48   c0.514,0.614,0.41,2.575-0.24,3.12c-0.619,0.518-2.41,0.607-3.12-0.24c-0.42-0.502-0.541-2.268,0-2.88   C34.612,163.829,35.22,163.777,35.76,163.68z"/>
	<path fill-rule="evenodd" clip-rule="evenodd" d="M179.76,163.68c0.736-0.132,1.65,0.157,1.92,0.48   c0.515,0.614,0.411,2.575-0.239,3.12c-0.619,0.518-2.41,0.607-3.12-0.24c-0.421-0.502-0.541-2.268,0-2.88   C178.612,163.829,179.22,163.777,179.76,163.68z"/>
	<path fill-rule="evenodd" clip-rule="evenodd" d="M22.8,165.84c-0.48,1.118-1.919,1.118-2.4,0   C20.398,164.078,22.802,164.078,22.8,165.84z"/>
	<path fill-rule="evenodd" clip-rule="evenodd" d="M195.6,165.84c-0.479,1.118-1.919,1.118-2.399,0   C193.198,164.078,195.603,164.078,195.6,165.84z"/>
	<path fill-rule="evenodd" clip-rule="evenodd" d="M85.92,169.68c1.248-0.198,2.334,0.176,2.88,0.721   c1.721,1.719,0.55,5.623-2.16,5.76c-1.883,0.095-4.335-2.055-3.36-4.561C83.674,170.587,84.43,169.917,85.92,169.68z"/>
	<path fill-rule="evenodd" clip-rule="evenodd" d="M99.84,169.68c2.034-0.541,3.175,0.104,4.08,1.681   c1.007,1.755-0.62,4.515-2.4,4.8c-1.743,0.279-4.394-0.889-4.08-3.84C97.555,171.24,98.118,170.139,99.84,169.68z"/>
	<path fill-rule="evenodd" clip-rule="evenodd" d="M114.24,169.68c2.033-0.541,3.175,0.104,4.08,1.681   c1.007,1.755-0.62,4.515-2.4,4.8c-1.743,0.279-4.395-0.889-4.08-3.84C111.955,171.24,112.518,170.139,114.24,169.68z"/>
	<path fill-rule="evenodd" clip-rule="evenodd" d="M129.12,169.68c1.248-0.198,2.335,0.176,2.88,0.721   c1.721,1.719,0.55,5.623-2.16,5.76c-1.883,0.095-4.335-2.055-3.359-4.561C126.874,170.587,127.63,169.917,129.12,169.68z"/>
	<path fill-rule="evenodd" clip-rule="evenodd" d="M71.76,169.92c1.387-0.157,3.259,0.85,3.36,2.64   c0.081,1.43-1.235,3.268-2.88,3.36c-1.485,0.084-3.439-1.104-3.36-3.36c-0.002,0.069,0.184-0.806,0.24-0.96   C69.373,170.91,70.183,170.099,71.76,169.92z"/>
	<path fill-rule="evenodd" clip-rule="evenodd" d="M143.52,169.92c0.101-0.019,0.213-0.257,0.48-0.24   c1.737,0.108,3.039,1.468,3.12,2.88c0.097,1.692-1.528,3.283-2.88,3.36c-1.461,0.084-3.36-1.213-3.36-3.12   C140.88,171.205,141.967,170.201,143.52,169.92z"/>
	<path fill-rule="evenodd" clip-rule="evenodd" d="M56.88,170.4c0.849-0.23,1.63-0.271,2.16,0c0.497,0.254,1.111,1.261,1.2,1.92   c0.503,3.733-5.036,4.374-5.28,0.72C54.845,171.326,55.377,170.808,56.88,170.4z"/>
	<path fill-rule="evenodd" clip-rule="evenodd" d="M157.68,170.4c0.85-0.23,1.63-0.271,2.16,0c0.497,0.254,1.111,1.261,1.2,1.92   c0.503,3.733-5.035,4.374-5.28,0.72C155.646,171.326,156.177,170.808,157.68,170.4z"/>
	<path fill-rule="evenodd" clip-rule="evenodd" d="M42.72,170.88c0.825-0.219,1.706-0.044,2.16,0.48   c0.045,0.051,0.462,0.984,0.48,1.199c0.107,1.305-1.02,2.327-1.92,2.4C41.386,175.128,39.596,171.71,42.72,170.88z"/>
	<path fill-rule="evenodd" clip-rule="evenodd" d="M172.32,170.88c1.514-0.404,2.559,0.39,2.64,1.68   c0.165,2.614-4.084,3.349-4.32,0.48C170.573,172.231,170.584,171.344,172.32,170.88z"/>
	<path fill-rule="evenodd" clip-rule="evenodd" d="M30,172.08c0.252,1.532-0.388,2.172-1.92,1.92   C26.489,172.736,28.736,170.488,30,172.08z"/>
	<path fill-rule="evenodd" clip-rule="evenodd" d="M188.4,172.08c0.251,1.532-0.389,2.172-1.92,1.92   C184.889,172.736,187.137,170.488,188.4,172.08z"/>
	<path fill-rule="evenodd" clip-rule="evenodd" d="M93.12,177.12c0.101-0.019,0.212-0.257,0.48-0.24   c1.737,0.108,3.039,1.468,3.12,2.88c0.097,1.692-1.528,3.282-2.88,3.36c-1.461,0.084-3.36-1.213-3.36-3.12   C90.48,178.404,91.567,177.4,93.12,177.12z"/>
	<path fill-rule="evenodd" clip-rule="evenodd" d="M107.28,177.12c4.648-1.044,5.002,5.789,0.96,6   c-1.749,0.091-3.36-0.974-3.36-3.12C104.88,178.358,105.541,177.511,107.28,177.12z"/>
	<path fill-rule="evenodd" clip-rule="evenodd" d="M121.92,177.12c0.101-0.019,0.213-0.257,0.48-0.24   c1.737,0.108,3.039,1.468,3.119,2.88c0.098,1.692-1.527,3.282-2.88,3.36c-1.461,0.084-3.359-1.213-3.359-3.12   C119.28,178.404,120.367,177.4,121.92,177.12z"/>
	<path fill-rule="evenodd" clip-rule="evenodd" d="M78.48,177.36c1.615-0.41,3.6,0.518,3.6,2.64c0,1.611-1.397,2.807-2.64,2.88   c-1.34,0.079-3.12-0.783-3.12-2.88C76.32,178.542,76.873,177.769,78.48,177.36z"/>
	<path fill-rule="evenodd" clip-rule="evenodd" d="M136.08,177.36c1.615-0.41,3.6,0.518,3.6,2.64c0,1.611-1.396,2.807-2.64,2.88   c-1.34,0.079-3.12-0.783-3.12-2.88C133.92,178.542,134.473,177.769,136.08,177.36z"/>
	<path fill-rule="evenodd" clip-rule="evenodd" d="M64.56,177.6c0.423-0.058,1.058-0.181,1.44,0c0.248,0.118,1.138,1.063,1.2,1.2   c0.287,0.635,0.2,1.958,0,2.4c-0.066,0.146-1.25,1.223-1.2,1.2c-2.286,1.033-4.46-1.75-3.6-3.601c0.006-0.013,1.03-1.126,1.2-1.2   C63.849,177.492,64.289,177.637,64.56,177.6z"/>
	<path fill-rule="evenodd" clip-rule="evenodd" d="M150.96,177.6c0.424-0.058,1.059-0.181,1.44,0c0.248,0.118,1.137,1.063,1.199,1.2   c0.287,0.635,0.2,1.958,0,2.4c-0.065,0.146-1.249,1.223-1.199,1.2c-2.286,1.033-4.461-1.75-3.601-3.601   c0.006-0.013,1.029-1.126,1.2-1.2C150.249,177.492,150.688,177.637,150.96,177.6z"/>
	<path fill-rule="evenodd" clip-rule="evenodd" d="M50.16,178.08c0.735-0.133,1.649,0.157,1.92,0.479   c0.514,0.615,0.411,2.576-0.24,3.12c-0.618,0.518-2.41,0.608-3.12-0.239c-0.42-0.503-0.542-2.268,0-2.881   C49.012,178.229,49.62,178.178,50.16,178.08z"/>
	<path fill-rule="evenodd" clip-rule="evenodd" d="M165.36,178.08c0.735-0.133,1.649,0.157,1.92,0.479   c0.515,0.615,0.41,2.576-0.24,3.12c-0.618,0.518-2.41,0.608-3.12-0.239c-0.42-0.503-0.541-2.268,0-2.881   C164.212,178.229,164.819,178.178,165.36,178.08z"/>
	<path fill-rule="evenodd" clip-rule="evenodd" d="M181.44,179.76c-0.142,0.979-0.702,1.539-1.681,1.681   c-0.459-0.342-0.858-0.741-1.2-1.2C178.687,178.365,180.864,178.24,181.44,179.76z"/>
	<path fill-rule="evenodd" clip-rule="evenodd" d="M37.2,179.28c0.251,1.531-0.388,2.172-1.92,1.92   C33.688,179.937,35.937,177.688,37.2,179.28z"/>
	<path fill-rule="evenodd" clip-rule="evenodd" d="M100.56,184.56c4.077-0.495,3.803,5.767,0,5.521   C97.697,189.895,96.771,185.021,100.56,184.56z"/>
	<path fill-rule="evenodd" clip-rule="evenodd" d="M114.96,184.56c4.077-0.495,3.803,5.767,0,5.521   C112.097,189.895,111.171,185.021,114.96,184.56z"/>
	<path fill-rule="evenodd" clip-rule="evenodd" d="M85.68,184.8c0.849-0.229,1.629-0.271,2.16,0c0.498,0.255,1.111,1.262,1.2,1.92   c0.503,3.733-5.036,4.375-5.28,0.721C83.646,185.727,84.177,185.207,85.68,184.8z"/>
	<path fill-rule="evenodd" clip-rule="evenodd" d="M128.88,184.8c0.85-0.229,1.63-0.271,2.16,0c0.497,0.255,1.111,1.262,1.2,1.92   c0.503,3.733-5.036,4.375-5.28,0.721C126.846,185.727,127.377,185.207,128.88,184.8z"/>
	<path fill-rule="evenodd" clip-rule="evenodd" d="M71.28,185.04c1.201-0.371,2.997,0.255,3.12,1.92   c0.105,1.422-1.16,2.566-2.16,2.64C69.922,189.771,68.29,185.964,71.28,185.04z"/>
	<path fill-rule="evenodd" clip-rule="evenodd" d="M143.28,185.04c1.201-0.371,2.997,0.255,3.12,1.92   c0.104,1.422-1.16,2.566-2.16,2.64C141.922,189.771,140.29,185.964,143.28,185.04z"/>
	<path fill-rule="evenodd" clip-rule="evenodd" d="M56.88,185.52c3.484-1.458,3.28,4.534,0,3.601   C55.385,188.694,55.313,186.176,56.88,185.52z"/>
	<path fill-rule="evenodd" clip-rule="evenodd" d="M157.68,185.52c3.484-1.458,3.28,4.534,0,3.601   C156.185,188.694,156.113,186.176,157.68,185.52z"/>
	<path fill-rule="evenodd" clip-rule="evenodd" d="M44.4,186.48c0.252,1.531-0.388,2.171-1.92,1.92   C40.889,187.137,43.136,184.889,44.4,186.48z"/>
	<path fill-rule="evenodd" clip-rule="evenodd" d="M174,186.48c0.252,1.531-0.388,2.171-1.92,1.92   C170.488,187.137,172.736,184.889,174,186.48z"/>
	<path fill-rule="evenodd" clip-rule="evenodd" d="M93.12,192.24c1.19-0.274,2.739,0.201,2.88,1.92c0.267,3.251-4.8,3.438-4.8,0.24   C91.2,193.639,91.409,192.635,93.12,192.24z"/>
	<path fill-rule="evenodd" clip-rule="evenodd" d="M107.28,192.24c3.682-1.145,4.026,4.332,0.96,4.56   c-1.108,0.083-2.519-0.527-2.64-2.16C105.495,193.232,105.89,192.672,107.28,192.24z"/>
	<path fill-rule="evenodd" clip-rule="evenodd" d="M121.92,192.24c1.19-0.274,2.739,0.201,2.88,1.92c0.267,3.251-4.8,3.438-4.8,0.24   C120,193.639,120.209,192.635,121.92,192.24z"/>
	<path fill-rule="evenodd" clip-rule="evenodd" d="M78.48,192.48c3.159-1.134,3.827,3.842,0.96,4.079   C77.448,196.726,75.723,193.469,78.48,192.48z"/>
	<path fill-rule="evenodd" clip-rule="evenodd" d="M136.08,192.48c3.159-1.134,3.827,3.842,0.96,4.079   C135.048,196.726,133.323,193.469,136.08,192.48z"/>
	<path fill-rule="evenodd" clip-rule="evenodd" d="M66.24,193.2c1.21,2.104-1.299,3.8-2.88,2.399   C62.15,193.496,64.659,191.801,66.24,193.2z"/>
	<path fill-rule="evenodd" clip-rule="evenodd" d="M152.64,193.2c1.211,2.104-1.299,3.8-2.88,2.399   C148.55,193.496,151.06,191.801,152.64,193.2z"/>
	<path fill-rule="evenodd" clip-rule="evenodd" d="M51.6,194.64c-0.48,1.118-1.92,1.118-2.4,0   C49.198,192.878,51.602,192.878,51.6,194.64z"/>
	<path fill-rule="evenodd" clip-rule="evenodd" d="M166.8,194.64c-0.48,1.118-1.92,1.118-2.399,0   C164.397,192.878,166.802,192.878,166.8,194.64z"/>
	<path fill-rule="evenodd" clip-rule="evenodd" d="M100.08,199.92c3.484-1.459,3.28,4.534,0,3.6   C98.585,203.094,98.514,200.576,100.08,199.92z"/>
	<path fill-rule="evenodd" clip-rule="evenodd" d="M114.48,199.92c3.484-1.459,3.279,4.534,0,3.6   C112.984,203.094,112.914,200.576,114.48,199.92z"/>
	<path fill-rule="evenodd" clip-rule="evenodd" d="M85.44,200.16c0.769-0.676,2.297-0.068,2.64,0.479   c0.896,2.716-2.266,3.354-3.36,1.92C84.708,201.508,84.552,200.313,85.44,200.16z"/>
	<path fill-rule="evenodd" clip-rule="evenodd" d="M128.64,200.16c0.77-0.676,2.298-0.068,2.641,0.479   c0.896,2.716-2.266,3.354-3.36,1.92C127.907,201.508,127.752,200.313,128.64,200.16z"/>
	<path fill-rule="evenodd" clip-rule="evenodd" d="M71.52,200.4c0.642-0.271,1.748-0.159,1.92,0.96   c0.268,1.74-2.679,2.297-2.88,0.479C70.5,201.296,70.49,200.833,71.52,200.4z"/>
	<path fill-rule="evenodd" clip-rule="evenodd" d="M143.28,200.4c2.387-1.461,3.055,2.972,0.479,2.64   C142.688,202.902,141.712,201.46,143.28,200.4z"/>
	<path fill-rule="evenodd" clip-rule="evenodd" d="M56.64,201.84c-0.059-1.479,1.978-1.479,1.92,0   C58.13,202.676,57.07,202.676,56.64,201.84z"/>
	<path fill-rule="evenodd" clip-rule="evenodd" d="M157.44,201.84c-0.059-1.479,1.978-1.479,1.92,0   C158.93,202.676,157.87,202.676,157.44,201.84z"/>
	<path fill-rule="evenodd" clip-rule="evenodd" d="M107.52,207.6c0.642-0.27,1.748-0.158,1.92,0.96c0.267,1.74-2.68,2.298-2.88,0.48   C106.5,208.496,106.49,208.033,107.52,207.6z"/>
	<path fill-rule="evenodd" clip-rule="evenodd" d="M94.8,208.08c0.252,1.532-0.388,2.172-1.92,1.92   C91.289,208.736,93.537,206.488,94.8,208.08z"/>
	<path fill-rule="evenodd" clip-rule="evenodd" d="M123.6,208.08c0.252,1.532-0.388,2.172-1.92,1.92   C120.089,208.736,122.337,206.488,123.6,208.08z"/>
	<path fill-rule="evenodd" clip-rule="evenodd" d="M80.16,208.56c0.074,0.954-0.461,1.3-1.44,1.2   c-0.106-0.214-0.211-0.429-0.48-0.479C77.79,207.706,79.903,207.398,80.16,208.56z"/>
	<path fill-rule="evenodd" clip-rule="evenodd" d="M137.76,208.56c0.074,0.954-0.461,1.3-1.439,1.2   c-0.106-0.214-0.211-0.429-0.48-0.479C135.39,207.706,137.503,207.398,137.76,208.56z"/>
	<path fill-rule="evenodd" clip-rule="evenodd" d="M65.52,209.04c-0.477,0.003-0.305,0.655-0.96,0.479   c-0.106-0.213-0.211-0.429-0.48-0.479C64.035,207.864,65.565,207.864,65.52,209.04z"/>
	<path fill-rule="evenodd" clip-rule="evenodd" d="M151.92,209.04c-0.477,0.003-0.305,0.655-0.96,0.479   c-0.106-0.213-0.211-0.429-0.479-0.479C150.435,207.864,151.965,207.864,151.92,209.04z"/>
	<path fill-rule="evenodd" clip-rule="evenodd" d="M101.52,216c-0.495-0.146-1.667,0.388-1.44-0.48   C100.446,215.15,101.726,215.093,101.52,216z"/>
	<path fill-rule="evenodd" clip-rule="evenodd" d="M115.92,216c-0.495-0.146-1.667,0.388-1.439-0.48   C114.846,215.15,116.126,215.093,115.92,216z"/>
</g>
<metadata><rdf:RDF><cc:Work><dc:format>image/svg+xml</dc:format><dc:type rdf:resource="http://purl.org/dc/dcmitype/StillImage"/><cc:license rdf:resource="http://creativecommons.org/licenses/publicdomain/"/><dc:publisher><cc:Agent rdf:about="http://openclipart.org/"><dc:title>Openclipart</dc:title></cc:Agent></dc:publisher></cc:Work><cc:License rdf:about="http://creativecommons.org/licenses/publicdomain/"><cc:permits rdf:resource="http://creativecommons.org/ns#Reproduction"/><cc:permits rdf:resource="http://creativecommons.org/ns#Distribution"/><cc:permits rdf:resource="http://creativecommons.org/ns#DerivativeWorks"/></cc:License></rdf:RDF></metadata></svg>