<?xml version="1.0" encoding="UTF-8"?>
<svg width="154px" height="54px" viewBox="0 0 154 54" version="1.1" xmlns="http://www.w3.org/2000/svg" xmlns:xlink="http://www.w3.org/1999/xlink">
    <!-- Generator: Sketch 52.4 (67378) - http://www.bohemiancoding.com/sketch -->
    <title>Group 40</title>
    <desc>Created with Sketch.</desc>
    <g id="Page-1" stroke="none" stroke-width="1" fill="none" fill-rule="evenodd">
        <g id="Index" transform="translate(-48.000000, -38.000000)">
            <g id="Group-40" transform="translate(48.000000, 38.000000)">
                <polygon id="Fill-1" fill="#1D252D" points="59.357993 9.65533255 62.0223296 9.65533255 62.0223296 19.9491023 66.4004009 19.9491023 66.4004009 22.4013524 59.357993 22.4013524"></polygon>
                <path d="M73.1986254,16.9705178 L75.4719275,16.9705178 L74.3357499,14.3828732 L73.1986254,16.9705178 Z M77.7546978,22.1893606 L76.4736575,19.2958948 L72.1628101,19.2958948 L70.7634179,22.4014471 L67.9286546,22.4014471 L74.3101859,8.69630392 L80.6917171,22.4014471 L77.8484325,22.4014471 L77.7546978,22.1893606 Z" id="Fill-2" fill="#1D252D"></path>
                <polygon id="Fill-3" fill="#1D252D" points="82.219308 8.70529866 90.2056902 16.9198632 90.2056902 9.65495383 92.8605587 9.65495383 92.8605587 23.3440012 84.8836447 14.7895301 84.8836447 22.4019205 82.219308 22.4019205"></polygon>
                <g id="Group-39" transform="translate(0.000000, 0.809527)">
                    <path d="M107.074994,14.7186137 L107.074994,16.6614775 C107.074994,17.3015243 106.959482,17.9434646 106.727513,18.5882455 C106.17836,20.0425529 105.157694,21.0262934 103.66362,21.5413606 C103.081329,21.733564 102.441282,21.8471818 101.74632,21.8803203 C101.559798,21.8916821 101.375169,21.8983098 101.194327,21.8983098 C100.690622,21.8983098 100.2068,21.8604372 99.7438071,21.7875324 C97.3616213,21.4078597 95.7406745,20.1069363 94.8809667,17.8838153 C94.5581029,17.0686078 94.3961975,16.1861765 94.3961975,15.2355745 C94.3914635,15.2308404 94.388623,15.2251596 94.388623,15.2194787 C94.388623,14.2802385 94.5581029,13.4063285 94.8980094,12.5968019 C95.2256072,11.7825412 95.71227,11.0639088 96.3579977,10.4409047 C96.9734272,9.83589012 97.7015278,9.37195091 98.5375652,9.0500339 C99.3641344,8.73853185 100.260768,8.58041379 101.228413,8.5747329 L101.253977,8.5747329 C102.209313,8.5747329 103.08985,8.75841496 103.893696,9.12577908 C104.316922,9.33029106 104.692808,9.56510111 105.021352,9.83020923 C105.281726,10.0404021 105.499494,10.2392332 105.674655,10.4285961 C105.850762,10.6179591 106.042966,10.8376201 106.252212,11.0866324 L104.265794,12.5882805 C104.124719,12.4301625 103.995952,12.2890871 103.880441,12.1641075 C103.763982,12.0400748 103.62196,11.9094144 103.451534,11.7740199 C102.840838,11.2987189 102.099482,11.0610684 101.228413,11.0610684 C100.023117,11.0610684 99.0422174,11.4454752 98.2838188,12.2152355 C97.5254202,12.9736341 97.1466943,13.9744173 97.1466943,15.2194787 C97.1466943,16.4976786 97.5254202,17.5211853 98.2838188,18.2909456 C99.0422174,19.0663869 100.028798,19.4536341 101.245455,19.4536341 C101.686671,19.4536341 102.118418,19.4043998 102.539751,19.3049842 C102.960137,19.2065155 103.336022,19.0237802 103.66362,18.7577253 C104.173006,18.3449141 104.447583,17.7853466 104.487349,17.078076 L101.602404,17.078076 L101.602404,14.7186137 L107.074994,14.7186137 Z" id="Fill-4" fill="#1D252D"></path>
                    <path d="M111.233025,8.84580596 L111.233025,16.5093244 C111.233025,17.4372028 111.435643,18.1558352 111.84088,18.6642747 C112.244223,19.173661 112.927823,19.4283542 113.889787,19.4283542 C114.845123,19.4283542 115.523989,19.1727142 115.926386,18.6604874 C116.327835,18.1482607 116.52856,17.4315219 116.52856,16.5093244 L116.52856,8.84580596 L119.192897,8.84580596 L119.192897,16.6958469 C119.192897,20.1697101 117.425193,21.9061683 113.889787,21.9061683 C110.364796,21.9061683 108.602774,20.1697101 108.602774,16.6958469 L108.602774,8.84580596 L111.233025,8.84580596 Z" id="Fill-6" fill="#1D252D"></path>
                    <path d="M124.489378,16.1609912 L126.76268,16.1609912 L125.626503,13.5733466 L124.489378,16.1609912 Z M129.045451,21.379834 L127.76441,18.4863682 L123.453563,18.4863682 L122.054171,21.5919205 L119.219407,21.5919205 L125.600939,7.88677732 L131.98247,21.5919205 L129.139185,21.5919205 L129.045451,21.379834 Z" id="Fill-8" fill="#1D252D"></path>
                    <path d="M144.125653,14.7186137 L144.125653,16.6614775 C144.125653,17.3015243 144.010141,17.9434646 143.778172,18.5882455 C143.229019,20.0425529 142.208353,21.0262934 140.714279,21.5413606 C140.131988,21.733564 139.491942,21.8471818 138.79698,21.8803203 C138.610457,21.8916821 138.425828,21.8983098 138.244987,21.8983098 C137.741281,21.8983098 137.257459,21.8604372 136.794466,21.7875324 C134.412281,21.4078597 132.791334,20.1069363 131.931626,17.8838153 C131.608762,17.0686078 131.446857,16.1861765 131.446857,15.2355745 C131.442123,15.2308404 131.439282,15.2251596 131.439282,15.2194787 C131.439282,14.2802385 131.608762,13.4063285 131.948669,12.5968019 C132.276267,11.7825412 132.762929,11.0639088 133.408657,10.4409047 C134.024086,9.83589012 134.752187,9.37195091 135.588224,9.0500339 C136.414794,8.73853185 137.311427,8.58041379 138.279072,8.5747329 L138.304636,8.5747329 C139.259972,8.5747329 140.14051,8.75841496 140.944355,9.12577908 C141.367582,9.33029106 141.743467,9.56510111 142.072012,9.83020923 C142.332386,10.0404021 142.550153,10.2392332 142.725314,10.4285961 C142.901421,10.6179591 143.093625,10.8376201 143.302871,11.0866324 L141.316454,12.5882805 C141.175378,12.4301625 141.046611,12.2890871 140.9311,12.1641075 C140.814642,12.0400748 140.67262,11.9094144 140.502193,11.7740199 C139.891497,11.2987189 139.150141,11.0610684 138.279072,11.0610684 C137.073777,11.0610684 136.092877,11.4454752 135.334478,12.2152355 C134.576079,12.9736341 134.197354,13.9744173 134.197354,15.2194787 C134.197354,16.4976786 134.576079,17.5211853 135.334478,18.2909456 C136.092877,19.0663869 137.079458,19.4536341 138.296115,19.4536341 C138.73733,19.4536341 139.169078,19.4043998 139.59041,19.3049842 C140.010796,19.2065155 140.386681,19.0237802 140.714279,18.7577253 C141.223666,18.3449141 141.498242,17.7853466 141.538008,17.078076 L138.653064,17.078076 L138.653064,14.7186137 L144.125653,14.7186137 Z" id="Fill-10" fill="#1D252D"></path>
                    <polygon id="Fill-12" fill="#1D252D" points="145.653054 8.84580596 153.078922 8.84580596 153.078922 11.2137896 148.309816 11.2137896 148.309816 13.5221239 153.078922 13.5221239 153.078922 15.9488101 148.309816 15.9488101 148.309816 19.1395757 153.078922 19.1395757 153.078922 21.5918258 145.653054 21.5918258"></polygon>
                    <path d="M60.9684278,38.0373466 C61.120865,38.59218 61.3481005,39.0305552 61.6520281,39.3524722 C61.954062,39.6753361 62.4284161,39.8362946 63.073197,39.8362946 C63.5134658,39.8362946 63.8836704,39.7179427 64.1809702,39.4802922 C64.4773232,39.2426417 64.6259731,38.8809585 64.6259731,38.3933489 C64.6259731,37.9010053 64.3087902,37.4929281 63.6753711,37.1681707 C63.0410053,36.8424664 62.5221508,36.5697838 62.1140736,36.3482291 C61.3443133,35.9467797 60.6635535,35.4572764 60.0689538,34.8806663 C59.5027586,34.3371946 59.219661,33.6138282 59.219661,32.7086733 L59.219661,32.5552893 C59.2537463,31.5535593 59.6551958,30.7052133 60.425903,30.0093045 C61.171993,29.3361192 62.0430625,29 63.0391116,29 L63.1413676,29 C63.972671,29.0170427 64.672367,29.1732671 65.2414027,29.4705669 C65.8094915,29.7678667 66.3141438,30.2753594 66.7553594,30.9939918 L64.9573583,32.5893746 C64.7528463,32.2665108 64.5095149,31.9786791 64.2264173,31.723986 C63.9556283,31.4806546 63.6223495,31.3585155 63.2256341,31.3585155 L63.1745061,31.3585155 C62.8459614,31.3755582 62.5571829,31.4891759 62.3053302,31.698422 C62.0534775,31.907668 61.9275511,32.1936061 61.9275511,32.5552893 C61.9275511,32.9008767 62.1424781,33.2218469 62.572332,33.5191467 C63.0021859,33.8154997 63.4036353,34.0626184 63.7776271,34.2614494 C64.6941438,34.7528463 65.5226067,35.2934775 66.2639626,35.8823963 C66.987329,36.4590064 67.3499591,37.3187142 67.3499591,38.4615196 L67.3499591,38.5126476 C67.3395441,39.6384103 66.9390415,40.5435652 66.149398,41.2281122 C65.3607013,41.9126593 64.3769608,42.2913852 63.2000701,42.3652367 C63.1158036,42.3709176 63.0277499,42.373758 62.9368556,42.373758 C62.1566803,42.373758 61.4153244,42.1673524 60.7137347,41.7545412 C59.9269316,41.2962829 59.3560023,40.625938 59,39.7435067 L60.9684278,38.0373466 Z" id="Fill-14" fill="#1D252D"></path>
                    <path d="M79.3269082,32.8440678 C78.285412,31.9559556 77.1265108,31.5118995 75.8473641,31.5118995 C74.631654,31.5118995 73.6441262,31.8991467 72.8857276,32.674588 C72.127329,33.4500292 71.7486032,34.4621742 71.7486032,35.7119696 C71.7486032,36.9172648 72.1197545,37.9104734 72.8611105,38.6906487 C73.5958387,39.4604091 74.5246639,39.8457627 75.6437989,39.8457627 C76.6455289,39.8457627 77.5790883,39.5768673 78.4444769,39.0390766 C78.7162127,38.8695967 78.9633314,38.6906487 79.1877265,38.5050731 C79.4111748,38.3176037 79.6440912,38.1197195 79.8874226,37.9104734 L79.8874226,41.0671537 L79.7425599,41.1684629 C79.1602688,41.5822209 78.5524138,41.8785739 77.9189947,42.0603624 C77.2401286,42.2582466 76.5413793,42.3567154 75.8227469,42.3567154 C75.3635418,42.3567154 74.8939217,42.3169492 74.4138866,42.2383635 C72.5524489,41.9211806 71.1180245,41.0027703 70.1115605,39.4802922 C69.3692577,38.3715722 69,37.1094681 69,35.6958738 C69,34.2870134 69.373045,33.0277499 70.119135,31.9190298 C70.8775336,30.7875862 71.882104,29.9790064 73.1318995,29.4923437 C73.9584687,29.1637989 74.8124956,29 75.6949269,29 C76.0736528,29 76.4618469,29.0312449 76.8585622,29.0937347 C77.9104734,29.2575336 78.9122034,29.6646639 79.8618586,30.3151257 L80.0228171,30.425903 L79.8703799,33.3023261 L79.3269082,32.8440678 Z" id="Fill-16" fill="#1D252D"></path>
                    <polygon id="Fill-18" fill="#1D252D" points="82 29 84.6567621 29 84.6567621 33.4386674 89.8841262 33.4386674 89.8841262 29 92.5399416 29 92.5399416 41.7460199 89.8841262 41.7460199 89.8841262 35.8909176 84.6567621 35.8909176 84.6567621 41.7460199 82 41.7460199"></polygon>
                    <path d="M104.845763,35.6617884 C104.845763,35.0908591 104.744454,34.5587493 104.539942,34.0664056 C104.098726,33.0031327 103.371572,32.2532554 102.359427,31.8177206 C101.832998,31.5971128 101.310357,31.4863355 100.789608,31.4863355 C100.274541,31.4863355 99.759474,31.5942724 99.2444068,31.8091993 C99.1591935,31.8489655 99.038948,31.9114553 98.8836704,31.9957218 C98.7283928,32.0809351 98.6166686,32.1491058 98.5494448,32.199287 C98.3506137,32.3299474 98.1470485,32.4994272 97.9378025,32.7086733 L97.9378025,32.7171946 C97.75128,32.9037171 97.5808533,33.1110695 97.4284161,33.3364115 C97.2873407,33.5513384 97.1623612,33.7918293 97.0544243,34.0578843 C96.851806,34.5672706 96.74955,35.0993805 96.74955,35.6532671 C96.74955,35.7896084 96.7552309,35.9250029 96.7665926,36.0603974 C96.8290824,36.762934 97.0496902,37.4010871 97.4284161,37.9786441 C97.8923553,38.6859147 98.4983168,39.1981414 99.2444068,39.5143776 C99.7878784,39.7463472 100.319988,39.8628054 100.840736,39.8628054 C101.598188,39.8628054 102.331023,39.6166335 103.038293,39.1242899 C104.242642,38.3043483 104.845763,37.1501812 104.845763,35.6617884 M107.594366,35.6617884 C107.594366,36.5555815 107.425833,37.4133957 107.085926,38.2333372 C106.921181,38.6186908 106.712881,38.9964699 106.458188,39.3704617 C105.682747,40.4962244 104.65924,41.3171128 103.385774,41.8312332 C102.547843,42.1711397 101.694763,42.3406195 100.822747,42.3406195 C100.37585,42.3406195 99.9232729,42.2951724 99.4650146,42.205225 C98.5598597,42.0291175 97.7455991,41.6986791 97.0212858,41.2120164 C96.6823261,40.9970894 96.3395792,40.7225132 95.9939918,40.3892344 C95.3435301,39.7605494 94.8511864,39.0447575 94.5179077,38.2418586 C94.1732671,37.4266511 94,36.5783051 94,35.6958738 C94,35.469585 94.0113618,35.2432963 94.0340853,35.0170076 C94.1410754,33.8912449 94.5093863,32.8696318 95.1371245,31.9531151 C95.6408299,31.2183869 96.2714085,30.6010637 97.0298071,30.1030392 L97.0298071,30.0954646 C98.149889,29.3654705 99.4091525,29 100.805704,29 C102.175745,29 103.428381,29.3654705 104.565506,30.0954646 C105.318223,30.5925424 105.948802,31.2155465 106.458188,31.9616365 C107.21564,33.0817183 107.594366,34.3154179 107.594366,35.6617884" id="Fill-20" fill="#1D252D"></path>
                    <path d="M119.845763,35.6617884 C119.845763,35.0908591 119.744454,34.5587493 119.539942,34.0664056 C119.098726,33.0031327 118.371572,32.2532554 117.359427,31.8177206 C116.832998,31.5971128 116.310357,31.4863355 115.789608,31.4863355 C115.274541,31.4863355 114.759474,31.5942724 114.244407,31.8091993 C114.159193,31.8489655 114.038948,31.9114553 113.88367,31.9957218 C113.728393,32.0809351 113.616669,32.1491058 113.549445,32.199287 C113.350614,32.3299474 113.147049,32.4994272 112.937802,32.7086733 L112.937802,32.7171946 C112.75128,32.9037171 112.580853,33.1110695 112.428416,33.3364115 C112.287341,33.5513384 112.162361,33.7918293 112.054424,34.0578843 C111.851806,34.5672706 111.74955,35.0993805 111.74955,35.6532671 C111.74955,35.7896084 111.755231,35.9250029 111.766593,36.0603974 C111.829082,36.762934 112.04969,37.4010871 112.428416,37.9786441 C112.892355,38.6859147 113.498317,39.1981414 114.244407,39.5143776 C114.787878,39.7463472 115.319988,39.8628054 115.840736,39.8628054 C116.598188,39.8628054 117.331023,39.6166335 118.038293,39.1242899 C119.242642,38.3043483 119.845763,37.1501812 119.845763,35.6617884 M122.594366,35.6617884 C122.594366,36.5555815 122.425833,37.4133957 122.085926,38.2333372 C121.921181,38.6186908 121.712881,38.9964699 121.458188,39.3704617 C120.682747,40.4962244 119.65924,41.3171128 118.385774,41.8312332 C117.547843,42.1711397 116.694763,42.3406195 115.822747,42.3406195 C115.37585,42.3406195 114.923273,42.2951724 114.465015,42.205225 C113.55986,42.0291175 112.745599,41.6986791 112.021286,41.2120164 C111.682326,40.9970894 111.339579,40.7225132 110.993992,40.3892344 C110.34353,39.7605494 109.851186,39.0447575 109.517908,38.2418586 C109.173267,37.4266511 109,36.5783051 109,35.6958738 C109,35.469585 109.011362,35.2432963 109.034085,35.0170076 C109.141075,33.8912449 109.509386,32.8696318 110.137124,31.9531151 C110.64083,31.2183869 111.271409,30.6010637 112.029807,30.1030392 L112.029807,30.0954646 C113.149889,29.3654705 114.409153,29 115.805704,29 C117.175745,29 118.428381,29.3654705 119.565506,30.0954646 C120.318223,30.5925424 120.948802,31.2155465 121.458188,31.9616365 C122.21564,33.0817183 122.594366,34.3154179 122.594366,35.6617884" id="Fill-22" fill="#1D252D"></path>
                    <polygon id="Fill-24" fill="#1D252D" points="124 29 126.664337 29 126.664337 39.2937697 131.043355 39.2937697 131.043355 41.7460199 124 41.7460199"></polygon>
                    <polygon id="Fill-26" fill="#FE4646" points="22.7493068 0.882052601 39.1585529 2.03053887 44.0905108 6.33949269 44.7201426 50.6295921 33.5553033 43.7026955 19.5329772 43.7026955 24.5700316 25.7558223 32.1265599 24.2863659"></polygon>
                    <path d="M17.6250508,10.6391677 C17.6250508,11.8264734 16.6611935,12.789384 15.4748346,12.789384 C14.2865821,12.789384 13.3236715,11.8264734 13.3236715,10.6391677 C13.3236715,9.45091525 14.2865821,8.48895149 15.4748346,8.48895149 C16.6611935,8.48895149 17.6250508,9.45091525 17.6250508,10.6391677" id="Fill-28" fill="#1D252D"></path>
                    <g id="Group-32" fill="#1D252D">
                        <path d="M41.7115441,45.7197896 L34.797903,40.847481 L22.7591537,40.847481 L25.2985108,26.650941 L33.4259684,25.17391 L25.8126312,3.92454705 L37.2226955,3.92454705 C39.6976692,3.92454705 41.7115441,5.93842198 41.7115441,8.41339568 L41.7115441,45.7197896 Z M3.78688019,36.3576856 L3.78688019,8.41339568 C3.78688019,5.93842198 5.80075511,3.92454705 8.27667563,3.92454705 L21.7896154,3.92454705 L28.3548288,22.2463589 L22.0338936,23.3948451 L21.2953781,27.5257978 L13.9660853,24.8785038 L12.6803109,28.4404208 L20.6193524,31.3073758 L18.9131923,40.847481 L8.27667563,40.847481 C5.80075511,40.847481 3.78688019,38.8336061 3.78688019,36.3576856 Z M37.2226955,0.137288136 L8.27667563,0.137288136 C3.71302864,0.137288136 -0.000378725891,3.84974868 -0.000378725891,8.41339568 L-0.000378725891,36.3576856 C-0.000378725891,40.9222794 3.71302864,44.6347399 8.27667563,44.6347399 L33.5982887,44.6347399 L45.498803,53.0216248 L45.498803,8.41339568 C45.498803,3.84974868 41.7863425,0.137288136 37.2226955,0.137288136 Z" id="Fill-30"></path>
                    </g>
                    <path d="M27.6562688,33.1334027 L27.1487762,31.9091712 C27.6979287,31.6809889 27.9592496,31.0485167 27.732014,30.4993641 L28.9562455,29.9918714 C29.4637382,31.2161029 28.8805003,32.62591 27.6562688,33.1334027" id="Fill-33" fill="#FFFFFF"></path>
                    <path d="M29.4823904,36.1398235 L28.9748977,34.9155921 C29.9557978,34.5084617 30.7198773,33.7443822 31.125114,32.7634822 C31.5312975,31.7825821 31.5312975,30.7013197 31.1241672,29.7213665 L32.3483986,29.2138738 C33.4684804,31.9132425 32.182706,35.0206885 29.4823904,36.1398235" id="Fill-35" fill="#FFFFFF"></path>
                    <path d="M31.39827,39.3677043 L30.8907773,38.1434728 C32.6546932,37.4125319 34.0275745,36.0377569 34.7585155,34.273841 C35.4875628,32.5099252 35.4875628,30.5670614 34.7566219,28.8031455 L35.9808533,28.2956528 C36.8471888,30.3862198 36.8481356,32.68982 35.9827469,34.7803869 C35.1173583,36.8719006 33.4888369,38.5013688 31.39827,39.3677043" id="Fill-37" fill="#FFFFFF"></path>
                </g>
            </g>
        </g>
    </g>
</svg>